<?xml version="1.0" encoding="utf-8"?>
<!-- Generator: Adobe Illustrator 24.3.0, SVG Export Plug-In . SVG Version: 6.00 Build 0)  -->
<svg version="1.1" id="Layer_1" xmlns="http://www.w3.org/2000/svg" xmlns:xlink="http://www.w3.org/1999/xlink" x="0px" y="0px"
	 viewBox="0 0 24 24" style="enable-background:new 0 0 24 24;" xml:space="preserve">
<path d="M22.1,18.5c0.7-2,1.1-4.3,1.1-6.5c0-2.3-0.4-4.5-1.1-6.5c0.1,0,0.3-0.1,0.4-0.2c0.1-0.1,0.1-0.3,0-0.4l-0.9-2.2
	c-0.1-0.2-0.2-0.3-0.4-0.3h-0.6c-0.5-0.8-1.1-1.5-1.7-2.2C18.8,0,18.7,0,18.6,0H5.5C5.3,0,5.2,0,5.1,0.1C4.5,0.8,3.9,1.5,3.4,2.3
	H2.8c-0.2,0-0.4,0.1-0.4,0.3L1.5,4.8c-0.1,0.1,0,0.3,0,0.4c0.1,0.1,0.2,0.2,0.4,0.2c-0.7,2-1.1,4.3-1.1,6.5c0,2.3,0.4,4.5,1.1,6.5
	c-0.1,0-0.3,0.1-0.4,0.2c-0.1,0.1-0.1,0.3,0,0.4l0.9,2.2c0.1,0.2,0.2,0.3,0.4,0.3h0.6c0.5,0.8,1.1,1.5,1.7,2.2C5.2,24,5.3,24,5.5,24
	h13.1c0.1,0,0.2,0,0.3-0.1c0.6-0.6,1.2-1.4,1.7-2.2h0.6c0.2,0,0.4-0.1,0.4-0.3l0.9-2.2c0.1-0.1,0-0.3,0-0.4
	C22.4,18.6,22.3,18.5,22.1,18.5z M21.1,18.5h-1.6c0.5-2,0.8-4.3,0.8-6.5c0-2.3-0.3-4.5-0.8-6.5h1.6c0.8,2,1.2,4.3,1.2,6.5
	C22.3,14.3,21.9,16.5,21.1,18.5z M5.4,18.5c-0.6-2-0.9-4.3-0.9-6.5c0-2.3,0.3-4.5,0.9-6.5h3.2C8.5,7.2,8.4,9,8.4,10.9
	c-0.8,0.3-1.4,1-1.4,1.9c0,0.9,0.6,1.7,1.5,1.9c0.1,1.3,0.1,2.6,0.3,3.8L5.4,18.5L5.4,18.5z M9,13.9c-0.6,0-1.1-0.5-1.1-1.1
	c0-0.6,0.5-1.1,1.1-1.1c0.6,0,1.1,0.5,1.1,1.1C10.1,13.4,9.6,13.9,9,13.9z M9.6,18.5c-0.1-1.2-0.2-2.4-0.3-3.7c1-0.2,1.7-1,1.7-2
	c0-1-0.8-1.9-1.7-2c0-1.9,0.1-3.7,0.3-5.3h4.8c0.2,2,0.3,4.3,0.3,6.5c0,2.3-0.1,4.5-0.3,6.5H9.6z M15.3,5.5h3.2
	c0.6,2,0.9,4.3,0.9,6.5c0,2.3-0.3,4.5-0.9,6.5h-3.2c0.2-2,0.3-4.3,0.3-6.5C15.7,9.7,15.5,7.5,15.3,5.5z M19.5,2.3h-1.1
	c-0.2-0.5-0.5-1-0.8-1.4h0.7C18.8,1.3,19.1,1.8,19.5,2.3z M17.4,2.3h-2.5c-0.1-0.5-0.2-1-0.3-1.4h2C16.8,1.3,17.1,1.8,17.4,2.3z
	 M13.6,0.9c0.1,0.4,0.2,0.9,0.3,1.4h-3.8c0.1-0.5,0.2-1,0.3-1.4H13.6z M9.5,0.9C9.3,1.4,9.2,1.8,9.1,2.3H6.6c0.3-0.5,0.5-1,0.8-1.4
	H9.5z M5.6,0.9h0.7C6.1,1.4,5.9,1.8,5.6,2.3H4.5C4.9,1.8,5.2,1.3,5.6,0.9z M3.1,3.2h17.8l0.5,1.3H2.6L3.1,3.2z M2.9,5.5h1.6
	C4,7.5,3.7,9.7,3.7,12c0,2.3,0.3,4.5,0.8,6.5H2.9c-0.8-2-1.2-4.3-1.2-6.5C1.7,9.7,2.1,7.5,2.9,5.5z M4.5,21.7h1.1
	c0.2,0.5,0.5,1,0.8,1.4H5.6C5.2,22.7,4.9,22.2,4.5,21.7z M6.6,21.7h2.5c0.1,0.5,0.2,1,0.3,1.4h-2C7.2,22.7,6.9,22.2,6.6,21.7z
	 M10.4,23.1c-0.1-0.4-0.2-0.9-0.3-1.4h3.8c-0.1,0.5-0.2,1-0.3,1.4H10.4z M14.5,23.1c0.1-0.4,0.2-0.9,0.3-1.4h2.5
	c-0.3,0.5-0.5,1-0.8,1.4H14.5z M18.4,23.1h-0.7c0.3-0.4,0.5-0.9,0.8-1.4h1.1C19.1,22.2,18.8,22.7,18.4,23.1z M20.9,20.8H3.1
	l-0.5-1.3h18.8L20.9,20.8z"/>
</svg>
