<?xml version="1.0" encoding="utf-8"?>
<!-- Generator: Adobe Illustrator 25.3.1, SVG Export Plug-In . SVG Version: 6.00 Build 0)  -->
<svg version="1.1" id="Layer_1" xmlns="http://www.w3.org/2000/svg" xmlns:xlink="http://www.w3.org/1999/xlink" x="0px" y="0px"
	 viewBox="0 0 67.9 40" style="enable-background:new 0 0 67.9 40;" xml:space="preserve">
<style type="text/css">
	.st0{fill:#F07400;}
</style>
<path class="st0" d="M15.2,16.3l1.1-0.7c0,0,0-2-1.1-4.1c0,0,1.5-4,7.3-5.3c0,0-5.4,0.7-7.6,5.1c0,0-1.5,1-2.4,3.1
	C12.5,14.3,14,15.1,15.2,16.3z"/>
<path class="st0" d="M12.4,14.2c0,0,1-1.8,1.5-2.3c0,0-1.1-1.7-2-2.4c0,0-0.2-5,4.6-7.8c0,0-4.6,2.2-4.9,7.8c0,0-1.1,2.1-1,4
	C10.6,13.5,12.4,14.2,12.4,14.2z"/>
<path class="st0" d="M13.4,18.3c0,0,0.8-1.2,1.7-1.9c0,0-2.2-2.3-5-3c0,0-3.2-3.4-9-3.4c0,0,5.2,0,8.9,3.7c0,0-0.2,1.1,0.8,3.9
	C10.8,17.6,13.4,18.3,13.4,18.3z M16.2,19.8c0,0,0.6-0.6,1.6-1.2c0,0,0.3-1.9,0-3.2c0,0,1.5-1.9,4.8-2.9v-0.1c0,0-3.3,0.8-4.9,2.7
	c0,0-2.4,0.7-4,3.3C13.5,18.4,15.2,19.1,16.2,19.8z"/>
<path class="st0" d="M16.7,22.9c0,0,0.8-1.1,2.2-1.9c0,0,0-1.3-0.3-2.2c0,0,1.2-1.8,3.9-3v-0.2c0,0-2.9,1.1-4.2,2.9
	c0,0-2.2,0.8-3.7,3.6L16.7,22.9z"/>
<path class="st0" d="M15.8,24.8c0,0,0.8-2.2,3.4-3.7c0,0,1-1.5,3-2.6v0.2c0,0-1.8,1.1-2.7,2.6c0,0,0.6,1.5,0.5,3l-1.4,1.4
	C18.6,25.7,16.9,25,15.8,24.8z"/>
<path class="st0" d="M17.6,28.1c0,0,0.7-2.5,2.9-4l1-1.4l0.2,0.2l-0.9,1.4c0,0,0.6,1.3,0.8,2.3c0,0-1.1,1-1.5,2L17.6,28.1z"/>
<path class="st0" d="M22.9,29.2l-0.3-1.7l-0.4-0.8l0.2-0.5l-0.1-0.5l-0.4,0.8c0,0-2,1.7-2.4,4.3c0,0,1.8,0,2.8,0.2l0.3-0.6l-0.1-0.6
	C22.5,29.8,22.5,29.3,22.9,29.2z M23.9,33.5l-0.4-1.6c0,0-0.4,0-0.6-0.3c-0.2-0.2-0.2-0.7-0.2-0.7S22,32.5,22,33.8
	C22,33.8,23.9,33.5,23.9,33.5z M14.5,22c0,0,0.7-1.3,1.5-2.1c0,0-3.3-2.2-6.5-2.1c0,0-4.4-2.6-9.5-0.5c0,0,4.6-1.8,9.4,0.9
	c0,0,0.3,1.5,1.7,3.4C11.2,21.6,12.7,21.5,14.5,22z"/>
<path class="st0" d="M15.6,24.8l1-1.7c0,0-2.7-1.5-5.9-1.2c0,0-4.3-2.2-9.6,0.2c0,0,4.1-2.2,9.5,0.2c0.3,0.9,0.7,1.7,1.3,2.4
	C11.9,24.6,13.3,24.3,15.6,24.8z"/>
<path class="st0" d="M17.4,28.1c0,0,0.5-1.6,1.1-2.3c0,0-3.3-1.5-6.7-0.9c0,0-4.6-2-9.5,0.9c0,0,3.8-2.6,9.5-0.5c0,0,0.8,1.9,2.2,3
	C13.9,28.3,15.5,28,17.4,28.1z"/>
<path class="st0" d="M19.2,30.9c0,0,0.1-0.9,0.7-2.1c0,0-3.8-0.9-6.3,0c0,0-5.2-1.4-9.4,1.8c0,0,3.9-2.9,9.4-1.4c0,0,0.7,1.3,2,2.3
	C15.6,31.5,16.8,31,19.2,30.9z"/>
<path class="st0" d="M21.7,33.8c0,0-0.1-1.2,0.5-2.5c0,0-3.3-0.5-6.6,0.6c0,0-5.6-0.8-9.2,2.8c0,0,3.5-3.3,9.3-2.4
	c0,0,1,1.5,2.9,2.5C18.5,34.9,19.6,34.3,21.7,33.8z"/>
<path class="st0" d="M27.2,35.7l-0.3-0.6c0,0-2-0.3-2.8-1.2v-0.1c0,0-3.3,0.3-5.7,1.6c0,0-5.5-0.1-8.7,4c0,0,2.6-3.6,8.9-3.6
	c0,0,1.6,1.6,3.2,2c1.9,0.5,3,0.6,4.1,0.3C26.8,37.8,27.2,35.7,27.2,35.7z"/>
<g>
	<path class="st0" d="M33.9,39.5L30,40c-4.6,0.1-9.2-0.4-13.7-1.4c0,0-0.2,0-0.2-0.2s0.2-0.2,0.2-0.2c0.8,0.1,3.8,0.6,7.1,0.7
		c3.3,0.1,6.5-0.4,6.5-0.4l-3.1-1.3c0,0,0.7-1,0.5-2l0.7,0.1c0,0,1.5,0.9,2.6,1.3l3.1,1.1c0,0,2.3-0.7,3.4-1.2l2.4-1.2l0.4-0.1
		c0,0,0.8,1.7,2,1.3c0,0-2.7,1.4-4.3,1.8c0,0,4.2,0.6,7.5,0.3l3.3-0.3l1.7-0.2c0,0,0.2,0,0.2,0.2s-0.2,0.2-0.2,0.2s-3,0.7-5.1,0.9
		s-4.2,0.5-6.8,0.3L33.9,39.5L33.9,39.5z"/>
</g>
<g>
	<path class="st0" d="M54.1,12.9c0,0,1.3-1.2,2.2-1.7c0,0-0.3-1.4-1.4-2.8c0,0,0.3-2.2,2.1-4.9c0,0,2.1-2.9,2.8-3.5
		c0,0-4.4,3.9-5.2,8.3c0,0-1.4,1.8-1.9,3.4C52.6,11.6,53.5,12.2,54.1,12.9z"/>
	<path class="st0" d="M55.9,16l1.3-0.2c0,0,1-2.6,0.5-4.7c0,0,2.7-3.9,8.2-5.2c0,0-5.1,0.7-8.5,4.9c0,0-2,0.9-3.2,2.3
		C54.2,13,55.2,14.1,55.9,16z M54.8,19.8l2-0.1c0,0,1.2-1.4,1.7-3.4c0,0,4.3-2.6,9.4-0.7c0,0-4.4-2.1-9.5,0.4c0,0-1.9-0.2-5.1,1.2
		C53.4,17.1,54.5,18.5,54.8,19.8z"/>
	<path class="st0" d="M53.1,22.7c0,0,1.6-0.3,2.9,0c0,0,0.8-0.9,1.3-2.4c0,0,4.5-2.3,9.5,0c0,0-4.1-2.5-9.5-0.4c0,0-2-0.4-5.1,0.8
		C52.2,20.7,52.7,21.4,53.1,22.7z"/>
	<path class="st0" d="M51.9,26.2l2,0.2c0,0,1.5-1.3,2.2-3.1c0,0,4.7-2,9.5,0.6c0,0-4.2-2.8-9.5-1c0,0-2.2-0.5-5.1,0.4
		C51.1,23.3,51.8,24.6,51.9,26.2z"/>
	<path class="st0" d="M49.8,29l2.5,0.6c0,0,1.2-1,2-2.4c0,0,5.1-1.6,9.4,1.5c0,0-3.5-3.2-9.4-1.9c0,0-2.1-0.7-5.1-0.2
		C49.3,26.6,49.7,27.5,49.8,29z"/>
	<path class="st0" d="M47.5,32.1l1.9,0.7c0,0,1.7-0.8,2.9-2.5c0,0,5.4-1,9.2,2.4c0,0-3.3-3.6-9.2-2.8c0,0-2.2-1-5-0.8
		C47.4,29.2,47.8,30.4,47.5,32.1z M53.2,17c0,0,1.5-0.7,2.4-0.9c0,0-0.7-2.8-3.5-4.5c0,0-2.4-3.9-8.1-4.5c0,0,5.3,0.5,7.8,4.7
		c0,0-0.6,1.2-0.7,3.5C51.3,15.2,52.6,16,53.2,17z"/>
	<path class="st0" d="M52.1,20.5c0,0,1.7-0.6,2.5-0.7c0,0-0.9-3.4-4.5-5c0,0-1.6-2-4.6-2.9V12c0,0,2.7,0.9,4.4,3
		c0,0-0.4,1.1-0.2,3.2C49.7,18.2,51,18.9,52.1,20.5z M51,23.1c0,0,1.2-0.4,2-0.4c0,0-0.9-3.1-3.8-4.6c0,0-0.9-1.6-3.6-2.9v0.2
		c0,0,2.3,1.2,3.3,2.9c0,0-0.3,0.8-0.4,2.2C48.5,20.5,49.8,21.2,51,23.1z"/>
	<path class="st0" d="M49.2,26.4c0,0,1-0.2,2.5-0.2c0,0-0.2-3.4-3.5-5.6c0,0-0.6-1.2-2.3-2.4v0.3c0,0,1.4,1.1,2,2.3
		c0,0-0.5,0.9-0.7,2.9C47.2,23.6,48.6,24.8,49.2,26.4z"/>
	<path class="st0" d="M47.3,28.9h2.2c0,0-0.1-3.3-2.8-5.4l-0.4-0.6L46.2,23v0.2l0.2,0.5L46,24.4l-0.3,1.7
		C45.8,26.1,46.8,27.1,47.3,28.9z"/>
	<path class="st0" d="M45.2,31.6l2,0.4c0,0,0.6-2.8-1.5-5.5l-0.5,2.6l0.4,0.3l0.1,0.5l-0.3,1.2C45.4,31.2,45.4,31.4,45.2,31.6z
		 M44.7,31.9c0,0,3.1,0.4,4.9,1.5c0,0,5.5-0.2,8.7,4c0,0-2.8-3.7-8.9-3.6c0,0-3,3.2-7.2,2.4c0,0,1.8-0.2,2.2-1.5
		C44.8,33.8,44.9,32.8,44.7,31.9z"/>
	<path class="st0" d="M40.3,35.3c0,0,2.7-0.3,3.8-1.4l0.3-1.4c0,0,0,1.2-0.3,2.1c-0.1,0.3-0.3,0.7-0.6,0.9c-0.5,0.4-1.3,0.7-2.4,0.7
		C41.1,36.3,40.6,35.8,40.3,35.3z"/>
</g>
<g>
	<path class="st0" d="M46.6,20.4c-0.1-0.6-0.7-0.7-0.7-0.7c-0.1-1.6-0.9-6.8-0.9-6.8c0.5-0.1,0.4-0.5,0.4-0.5L45.1,11
		c-0.1-0.5-0.5-0.4-0.5-0.4l-0.4-2.3C43.4,6.9,34.1,7,34.1,7s-9.4-0.1-10.2,1.2l-0.4,2.3c0,0-0.4,0-0.5,0.4l-0.3,1.4
		c0,0-0.1,0.5,0.4,0.5c0,0-0.8,5.1-0.9,6.7c0,0-0.7,0-0.8,0.7V22c0,0,0.2,0.6,0.7,0.7c0,0,0.3,3.8,1,6.5c0,0-0.6,0-0.5,0.6l0.3,1.4
		c0,0,0.1,0.4,0.7,0.4l0.5,2.1c0,0,1.3,1.7,9.9,1.7s9.8-1.7,9.8-1.7l0.5-2.1c0.5,0,0.7-0.3,0.7-0.3l0.3-1.4c0.1-0.6-0.5-0.6-0.5-0.6
		c0.7-3,1-6.5,1-6.5c0.5-0.2,0.6-0.7,0.6-0.7L46.6,20.4z M33.9,35.2c-8.4-0.1-9.4-1.6-9.4-1.6L24,31.7c3.4,0.8,9.9,0.8,9.9,0.8
		S33.9,35.2,33.9,35.2z M33.9,26.8c0,0-1,0.1-1,1.2c0,1,1,1.2,1,1.2v1c-6.8-0.1-10.4-0.8-10.4-0.8c-0.7-3.3-1-6.5-1-6.5h11.4
		C33.9,22.9,33.9,26.8,33.9,26.8z M33.9,19.6H22.6c0-0.9,0.9-6.8,0.9-6.8C28.5,11.9,34,12,34,12L33.9,19.6L33.9,19.6z M33.9,9.7
		c-6.1-0.1-10.1,0.8-10.1,0.8l0.4-2.2c0.8-1,9.7-1,9.7-1V9.7z M34.2,10c0,0,6.4,0,10.5,0.9c0,0,0.1-0.1,0.2,0.3l0.3,1.1
		c0,0,0.2,0.3-0.2,0.3c0,0-2.7-0.9-10.7-0.9L34.2,10L34.2,10z M34.2,26.8c0,0,1,0.2,1,1.2s-1,1.2-1,1.2S34.2,26.8,34.2,26.8z
		 M45.2,29.8l-0.3,1.4l-0.2,0.2c-0.3,0.1-4.3,0.9-10.5,0.9v-1.8c0,0,7.2,0.1,10.7-0.9C45,29.6,45.2,29.6,45.2,29.8z M46.3,22.1
		c0,0,0,0.4-0.5,0.5H34.2V20h11.6c0,0,0.5,0.1,0.5,0.5C46.3,20.5,46.3,22.1,46.3,22.1z"/>
</g>
</svg>
