<?xml version="1.0" encoding="utf-8"?>
<!-- Generator: Adobe Illustrator 24.3.0, SVG Export Plug-In . SVG Version: 6.00 Build 0)  -->
<svg version="1.1" id="Layer_1" xmlns="http://www.w3.org/2000/svg" xmlns:xlink="http://www.w3.org/1999/xlink" x="0px" y="0px"
	 viewBox="0 0 85 50" style="enable-background:new 0 0 85 50;" xml:space="preserve">
<style type="text/css">
	.st0{fill:none;}
	.st1{fill:#FFFFFF;}
</style>
<g>
	<g>
		<g>
			<g>
				<path d="M34,43.5C34,43.4,34,43.4,34,43.5C34,43.4,34,43.5,34,43.5L34,43.5c0.3,0.1,0.4,0.3,0.6,0.4c-0.2,0-0.3-0.1-0.5-0.1
					C34.1,43.7,34.1,43.6,34,43.5L34,43.5z"/>
				<path d="M63,48.1c0,0.1-0.1,0.2-0.2,0.3c-4.8,1.1-9.7,1.7-14.7,1.6c-1.9-0.1-3.9-0.3-5.8-0.6c-0.5-0.1-1.1-0.2-1.6-0.3
					c-1.1-0.2-2.2-0.5-3.2-0.9c-1.3-0.4-2.6-1-3.9-1.6c0.3-0.4,0.5-0.9,0.6-1.4c0.1-0.4,0.1-0.8,0-1.1c0.1,0,0.2,0,0.3,0.1
					c0.2,0,0.4,0.1,0.6,0.1h0c2.2,1.3,4.6,2.3,7.1,3c1.6,0.4,3.2,0.8,4.8,1c0.2,0,0.3,0,0.5,0.1c5,0.6,10.1,0.4,15.1-0.3
					C62.9,47.8,63,47.9,63,48.1z"/>
			</g>
			<g>
				<path d="M20.6,2.1c-0.2,0.1-0.5,0.2-0.7,0.4c-0.2,0.2-0.4,0.3-0.7,0.5c-0.4,0.3-0.8,0.7-1.2,1.1c-0.7,0.8-1.4,1.7-1.9,2.7
					c-0.5,1-0.9,2.1-1.1,3.2c-0.1,0.6-0.2,1.3-0.2,1.9c0.3,0.3,0.6,0.6,0.9,0.9c0.4,0.4,0.7,0.8,1,1.2c0.2,0.3,0.4,0.6,0.6,0.9
					c0,0,0,0,0,0c-0.4,0.4-0.7,0.8-1,1.2c-0.2,0.3-0.4,0.7-0.6,1c-0.1,0.2-0.2,0.4-0.3,0.6c-0.4-0.2-0.8-0.4-1.2-0.6
					c-0.3-0.1-0.7-0.3-1-0.4c0-0.7,0.1-1.3,0.2-2c0.1-0.5,0.2-1,0.4-1.5c0.2-0.5,0.4-0.9,0.6-1.4c0,0,0,0,0,0l0,0c0-0.1,0-0.1,0-0.2
					c0-0.6,0.1-1.2,0.2-1.8c0.3-1.1,0.7-2.2,1.3-3.2c0.6-1,1.3-1.9,2-2.7c0.4-0.4,0.8-0.8,1.3-1.1c0.2-0.2,0.4-0.3,0.7-0.5
					C20.1,2.3,20.3,2.1,20.6,2.1z"/>
			</g>
			<g>
				<line class="st0" x1="17.2" y1="22.6" x2="17.2" y2="22.5"/>
				<path class="st1" d="M17.2,22.5C17.2,22.5,17.2,22.6,17.2,22.5L17.2,22.5L17.2,22.5z"/>
			</g>
			<g>
				<path d="M17.2,22.5C17.2,22.5,17.2,22.6,17.2,22.5L17.2,22.5L17.2,22.5z"/>
				<path d="M28.1,7.6C27,7.8,26,8.2,25,8.6c-1,0.5-2,1-2.8,1.7c-0.9,0.7-1.6,1.5-2.3,2.3c-0.4,0.5-0.7,1.1-0.9,1.6
					c0.2,0.4,0.4,0.7,0.5,1.1c0.2,0.5,0.3,0.9,0.4,1.4c0.2,0.9,0.4,1.8,0.4,2.7l0,0c-0.1,0-0.1,0.1-0.2,0.1
					c-0.4,0.2-0.8,0.5-1.1,0.7L19,20.4l0,0c0,0,0,0,0,0c-0.3-0.3-0.6-0.6-1-0.9c-0.1-0.1-0.1-0.1-0.2-0.2c-0.1,0-0.1-0.1-0.2-0.1
					c-0.5-0.4-1-0.8-1.6-1.1c-0.1-0.1-0.2-0.1-0.4-0.2c0,0,0,0,0,0c0.1-0.1,0.1-0.3,0.2-0.4c0.2-0.4,0.5-0.8,0.7-1.2
					c0.3-0.4,0.6-0.8,0.9-1.1c0,0,0,0,0,0c0.3-0.3,0.6-0.6,1-0.9c0,0,0,0,0.1,0c0,0,0-0.1,0.1-0.1c0,0,0,0,0,0
					c0.2-0.5,0.6-1,0.9-1.4c0.7-0.9,1.5-1.7,2.4-2.3c0.9-0.7,1.9-1.2,2.9-1.6C25.9,8.1,27,7.8,28.1,7.6z"/>
			</g>
			<g>
				<line class="st0" x1="18.6" y1="24" x2="18.6" y2="24"/>
				<line class="st0" x1="17.2" y1="22.5" x2="17.2" y2="22.5"/>
				<path class="st1" d="M18.6,24C18.6,24,18.6,24,18.6,24C18.5,24,18.5,24,18.6,24L18.6,24z"/>
				<path class="st1" d="M12.6,16.8C12.6,16.8,12.6,16.7,12.6,16.8C12.6,16.7,12.6,16.7,12.6,16.8C12.6,16.7,12.6,16.8,12.6,16.8z"
					/>
				<path class="st1" d="M17.2,22.5C17.2,22.5,17.2,22.6,17.2,22.5L17.2,22.5L17.2,22.5z"/>
			</g>
			<path d="M12.6,16.8C12.6,16.8,12.6,16.7,12.6,16.8C12.6,16.7,12.6,16.7,12.6,16.8C12.6,16.7,12.6,16.8,12.6,16.8z"/>
			<g>
				<path d="M18.6,24C18.6,24,18.6,24,18.6,24C18.5,24,18.5,24,18.6,24L18.6,24z"/>
				<path d="M18.8,20.5c-0.5,0.4-1,0.9-1.4,1.4c-0.1,0.1-0.1,0.1-0.2,0.2c0,0,0,0,0,0.1c0,0-0.1,0.1-0.1,0.2l0,0c0,0,0,0,0,0
					c0,0.1-0.1,0.1-0.1,0.2c-0.1,0.1-0.2,0.3-0.3,0.4c-0.5-0.2-1.1-0.4-1.6-0.5c-0.1,0-0.2,0-0.2-0.1c-0.1,0-0.1,0-0.2,0
					c-0.3-0.1-0.6-0.1-1-0.2c0,0-0.1,0-0.1,0l-0.1,0c-0.3-0.6-0.5-1.3-0.7-2c-0.1-0.5-0.2-1.1-0.3-1.6c0-0.4-0.1-0.9,0-1.4
					c-0.4-0.5-1-0.9-1.5-1.3c-0.9-0.7-1.9-1.3-3-1.8c-1-0.5-2.1-0.9-3.2-1.1c-1.1-0.3-2.2-0.4-3.4-0.4c1.1,0,2.3,0.1,3.4,0.3
					c1.1,0.2,2.2,0.6,3.3,1c1.1,0.5,2.1,1,3.1,1.7c0.5,0.3,1,0.7,1.4,1.1c0,0,0.1,0.1,0.1,0.1c0,0,0,0,0,0c0,0,0,0,0,0
					c0,0,0.1,0,0.1,0c0.2,0,0.3,0.1,0.5,0.1c0.3,0.1,0.6,0.2,0.9,0.3c0.5,0.2,0.9,0.4,1.3,0.6c0,0,0.1,0,0.1,0c0,0,0.1,0,0.1,0.1
					c0.2,0.1,0.4,0.2,0.5,0.3c0.5,0.3,1,0.7,1.5,1.1c0.1,0,0.1,0.1,0.2,0.1l0.1,0C18.2,19.9,18.5,20.2,18.8,20.5z"/>
				<path d="M17.2,22.5C17.2,22.5,17.2,22.6,17.2,22.5L17.2,22.5L17.2,22.5z"/>
			</g>
			<g>
				<path class="st1" d="M18.6,24C18.6,24,18.6,24,18.6,24C18.5,24,18.5,24,18.6,24L18.6,24z"/>
				<path class="st1" d="M17.2,22.5C17.2,22.5,17.2,22.6,17.2,22.5L17.2,22.5L17.2,22.5z"/>
				<path class="st1" d="M21.9,18.9L21.9,18.9C21.9,18.9,21.9,18.9,21.9,18.9C21.9,18.9,21.9,18.9,21.9,18.9z"/>
			</g>
			<g>
				<path d="M21.9,18.9L21.9,18.9C21.9,18.9,21.9,18.9,21.9,18.9C21.9,18.9,21.9,18.9,21.9,18.9z"/>
				<g>
					<path d="M18.6,24C18.6,24,18.6,24,18.6,24C18.5,24,18.5,24,18.6,24L18.6,24z"/>
				</g>
			</g>
			<g>
				<path class="st1" d="M18.6,24C18.6,24,18.6,24,18.6,24C18.5,24,18.5,24,18.6,24L18.6,24z"/>
			</g>
			<g>
				<path d="M20.1,24.9c-0.6,0.6-1.1,1.2-1.5,1.9c0,0,0,0.1-0.1,0.1c0,0.1-0.1,0.1-0.1,0.2c-0.1,0.1-0.2,0.3-0.2,0.4
					c0,0-0.1,0-0.1,0c-0.1,0-0.2,0-0.2-0.1c-0.4-0.1-0.9-0.2-1.4-0.3c0,0,0,0,0,0l-0.1,0C15.8,27,15.3,27,14.8,27
					c-0.2,0-0.4,0-0.7,0l0,0c-0.1,0-0.1,0-0.2,0c-0.3-0.4-0.6-0.9-0.9-1.4c-0.3-0.5-0.5-1-0.7-1.5c-0.2-0.4-0.3-0.9-0.4-1.3
					c-0.6-0.3-1.2-0.6-1.8-0.9C9,21.4,7.9,21.1,6.8,21c-1.1-0.2-2.3-0.2-3.4-0.1c-1.1,0.1-2.2,0.4-3.3,0.7c1.1-0.4,2.2-0.7,3.3-0.9
					c1.1-0.1,2.3-0.1,3.4,0c1.1,0.1,2.3,0.4,3.4,0.8c0.6,0.2,1.1,0.4,1.6,0.7c0,0,0,0,0,0c0,0,0.1,0,0.1,0.1c0,0,0.1,0,0.1,0
					c0.5,0,1,0,1.4,0.1c0,0,0.1,0,0.1,0c0.1,0,0.2,0,0.2,0c0.3,0.1,0.7,0.1,1,0.2l0,0c0,0,0.1,0,0.1,0l0.1,0
					c0.5,0.1,1.1,0.3,1.6,0.5c0.1,0,0.2,0.1,0.2,0.1c0.1,0,0.2,0.1,0.4,0.1c0.1,0,0.1,0.1,0.2,0.1c0.1,0,0.2,0.1,0.4,0.2
					c0.1,0.1,0.2,0.1,0.4,0.2l0,0c0.1,0,0.2,0.1,0.3,0.1c0.1,0,0.1,0.1,0.2,0.1c0,0,0.1,0,0.1,0c0.1,0.1,0.3,0.1,0.4,0.2
					c0.1,0,0.1,0.1,0.2,0.1c0.2,0.1,0.3,0.2,0.5,0.3c0,0,0.1,0,0.1,0.1C19.9,24.8,20,24.8,20.1,24.9z"/>
			</g>
			<g>
				<line class="st0" x1="20.7" y1="28.8" x2="20.7" y2="28.8"/>
				<path d="M2.8,32.2c1-0.6,2-1.1,3.1-1.4c1.1-0.3,2.2-0.5,3.4-0.5c1.2,0,2.3,0,3.5,0.3c0.6,0.1,1.2,0.3,1.7,0.5l0.1,0
					c0,0,0.1,0,0.1,0c0.1,0,0.2,0,0.2,0l0,0c0,0,0.1,0,0.1,0l0,0c0.1,0,0.1,0,0.2,0l0,0c0.3,0,0.6-0.1,0.9-0.1c0.5,0,1,0,1.5,0
					c0,0,0,0,0,0c0,0,0,0,0,0c0.6,0,1.1,0.1,1.6,0.2c0.1,0,0.1,0,0.2,0c0,0,0,0,0,0c0.1,0,0.1,0,0.2,0c0.1,0,0.1,0,0.2,0
					c0.2,0,0.3,0.1,0.5,0.1c0,0,0.1,0,0.1,0c0.5,0.1,1,0.3,1.4,0.4c0,0,0,0,0,0c0.1,0,0.1,0,0.2,0.1c0,0,0,0,0.1,0
					c0.2,0.1,0.4,0.1,0.6,0.2l0,0c0.1,0,0.1,0,0.2,0.1c-0.1,0.1-0.1,0.2-0.2,0.3l0,0c0,0-0.1,0.1-0.1,0.1c-0.1,0.1-0.1,0.2-0.2,0.3
					c0,0,0,0,0,0l0,0c0,0,0,0,0,0c-0.3,0.5-0.5,1-0.7,1.6c0,0,0,0,0,0c0,0.1-0.1,0.2-0.1,0.3c0,0.1-0.1,0.2-0.1,0.3c0,0,0,0,0,0
					c-0.1,0-0.2,0-0.2,0c-0.5,0-1,0-1.4,0l-0.2,0c0,0,0,0,0,0c-0.4,0-0.9,0-1.3,0.1c-0.2,0-0.5,0.1-0.7,0.1c-0.1,0-0.2,0-0.3,0.1
					l0,0c-0.4-0.3-0.7-0.7-1-1.1c-0.4-0.4-0.7-0.9-1-1.4c-0.2-0.4-0.5-0.8-0.6-1.3c-0.6-0.3-1.3-0.4-1.9-0.6
					c-1.1-0.3-2.3-0.4-3.4-0.4c-1.1,0-2.3,0.1-3.4,0.4C4.8,31.3,3.8,31.7,2.8,32.2z"/>
				<path d="M27,20c0.4-0.2,0.7-0.3,1.1-0.5c0,0,0,0,0,0c0,0,0,0.1,0,0.2c-0.3,0.1-0.7,0.3-1,0.5c-1,0.5-1.9,1.1-2.7,1.9
					c-0.5,0.4-0.9,0.9-1.2,1.4c0.1,0.4,0.2,0.7,0.2,1.1c0.1,0.5,0.1,0.9,0.1,1.4c0,0.1,0,0.2,0,0.3c0,0-0.1,0-0.1,0.1h0
					c-0.3,0.2-0.7,0.4-1,0.7c-0.4,0.3-0.8,0.7-1.1,1c-0.2,0.2-0.3,0.4-0.5,0.6c0,0,0,0,0,0c0,0,0,0-0.1,0c0,0,0,0,0,0
					c0,0-0.1,0-0.1-0.1h0c0,0,0,0,0,0c-0.2-0.1-0.5-0.2-0.7-0.3h0c-0.1,0-0.2-0.1-0.3-0.1c-0.2-0.1-0.3-0.1-0.4-0.2
					c-0.3-0.1-0.6-0.2-0.9-0.3c0.1-0.1,0.1-0.2,0.2-0.4c0-0.1,0.1-0.1,0.1-0.2c0,0,0,0,0,0c0.4-0.7,1-1.4,1.6-2h0
					c0,0,0.1-0.1,0.1-0.1l0.1-0.1c0.4-0.3,0.8-0.7,1.2-0.9c0.1-0.1,0.2-0.1,0.3-0.2c0.1,0,0.2-0.1,0.2-0.1c0.2-0.1,0.4-0.3,0.7-0.4
					c0,0,0,0,0.1,0h0c0,0,0.1-0.1,0.1-0.1c0,0,0,0,0,0c0.3-0.4,0.7-0.8,1.2-1.2C25,21.1,26,20.5,27,20z"/>
				<path d="M28.8,19.3c0,0.1,0,0.1,0,0.2c0,0-0.1,0-0.1,0c-0.1,0-0.2,0.1-0.3,0.1c0-0.1,0-0.1,0-0.2c0.1,0,0.2-0.1,0.3-0.1
					C28.7,19.3,28.7,19.3,28.8,19.3z"/>
				<path d="M25.1,24.9c0.8-0.7,1.7-1.4,2.6-1.9l0,0.1c0,0.1,0,0.1,0,0.2c-0.8,0.5-1.6,1.1-2.3,1.9c-0.4,0.4-0.8,0.9-1.1,1.5
					c0.1,0.4,0.2,0.7,0.3,1.1c0.1,0.5,0.2,0.9,0.3,1.4c0,0.4,0.1,0.9,0.1,1.3c-0.1,0-0.1,0.1-0.2,0.1c-0.2,0.2-0.4,0.3-0.5,0.5
					c-0.4,0.4-0.7,0.7-1,1.1c0,0,0,0,0,0c0,0,0,0-0.1,0l-0.3-0.1c0,0,0,0,0,0c0,0,0,0,0,0c-0.1,0-0.2-0.1-0.3-0.1
					c-0.1,0-0.1,0-0.2-0.1c0,0,0,0,0,0v0c-0.1,0-0.1-0.1-0.2-0.1c-0.5-0.2-1-0.3-1.5-0.5c-0.2-0.1-0.4-0.1-0.5-0.1
					c-0.1,0-0.1,0-0.2,0c0,0-0.1,0-0.2,0c0.1-0.2,0.1-0.3,0.2-0.5c0-0.1,0.1-0.2,0.1-0.3c0.1-0.2,0.2-0.4,0.4-0.6c0,0,0,0,0,0
					c0.2-0.3,0.3-0.5,0.5-0.7c0-0.1,0.1-0.1,0.1-0.2c0.1-0.2,0.3-0.4,0.4-0.5c0.3-0.4,0.7-0.7,1.1-1c0.2-0.2,0.5-0.4,0.8-0.6
					c0,0,0.1-0.1,0.1-0.1c0.1,0,0.1-0.1,0.2-0.1c0,0,0.1,0,0.1-0.1h0c0,0,0.1,0,0.1-0.1c0,0,0,0,0-0.1v0c0,0,0,0,0,0
					C24.3,25.7,24.7,25.3,25.1,24.9z"/>
				<path d="M28.4,22.6c0,0.1,0,0.2,0,0.2c0,0-0.1,0-0.1,0.1c-0.1,0-0.2,0.1-0.3,0.2c0-0.1,0-0.2,0-0.2c0.1,0,0.2-0.1,0.3-0.1v0
					C28.3,22.7,28.3,22.7,28.4,22.6z"/>
				<path d="M1.4,27.5c1-0.5,2.1-0.9,3.2-1.1c1.1-0.2,2.3-0.3,3.4-0.3c1.2,0,2.3,0.2,3.5,0.5c0.6,0.2,1.1,0.3,1.7,0.6c0,0,0,0,0,0
					c0,0,0.1,0,0.1,0.1c0,0,0.1,0,0.1,0l0,0c0.3,0,0.5,0,0.7,0c0.1,0,0.1,0,0.2,0c0.1,0,0.3,0,0.4,0c0.5,0,1,0.1,1.5,0.2
					c0,0,0.1,0,0.1,0c0,0,0.1,0,0.1,0c0.4,0.1,0.8,0.1,1.1,0.2l0,0c0.1,0,0.2,0,0.2,0.1c0,0,0.1,0,0.1,0c0.1,0,0.1,0,0.2,0.1
					c0.3,0.1,0.6,0.2,0.9,0.3c0,0,0.1,0,0.1,0.1c0.1,0,0.2,0.1,0.3,0.1c0.3,0.1,0.7,0.3,1,0.4c0,0,0,0,0,0c0,0,0,0,0,0
					c0.1,0,0.1,0,0.2,0.1l0,0c0,0,0,0,0,0c0,0,0,0,0,0l0,0c-0.1,0.1-0.2,0.3-0.3,0.4c-0.2,0.3-0.4,0.7-0.6,1.1
					c-0.1,0.2-0.2,0.4-0.3,0.6c-0.1,0-0.1,0-0.2,0c-0.2,0-0.4-0.1-0.7-0.1c0,0,0,0,0,0l0,0c-0.3,0-0.5-0.1-0.8-0.1
					c-0.1,0-0.1,0-0.2,0c0,0,0,0-0.1,0c-0.4,0-0.9,0-1.3,0c-0.4,0-0.8,0-1.2,0.1c-0.1,0-0.1,0-0.2,0c-0.1-0.1-0.1-0.2-0.2-0.2
					c-0.3-0.5-0.6-0.9-0.9-1.5c-0.2-0.4-0.4-0.8-0.5-1.3c-0.6-0.3-1.2-0.5-1.9-0.7c-1.1-0.3-2.3-0.5-3.4-0.6c-1.1-0.1-2.3,0-3.4,0.2
					C3.5,26.7,2.4,27.1,1.4,27.5z"/>
				<path d="M28.1,15.7C28.1,15.7,28.1,15.7,28.1,15.7c-0.6,0.2-1.2,0.4-1.8,0.7c-1,0.4-2,1-2.8,1.7c-0.5,0.4-0.9,0.8-1.3,1.3
					c0.1,0.4,0.1,0.8,0.2,1.2c0,0.5,0,1,0,1.4c0,0.5-0.1,1-0.1,1.4c0,0,0,0,0,0c-0.1,0-0.2,0.1-0.2,0.1c-0.2,0.1-0.3,0.2-0.5,0.3
					c-0.4,0.3-0.8,0.6-1.2,1c0,0-0.1,0.1-0.1,0.1l-0.1-0.1c-0.1,0-0.1-0.1-0.2-0.1c0,0-0.1,0-0.1-0.1c-0.2-0.1-0.3-0.2-0.5-0.3
					l-0.2-0.1c-0.1-0.1-0.2-0.1-0.4-0.2c-0.1,0-0.1-0.1-0.2-0.1c-0.1-0.1-0.3-0.1-0.4-0.2h0c-0.1-0.1-0.3-0.1-0.4-0.2l-0.1,0
					c-0.1,0-0.2-0.1-0.3-0.1c-0.1,0-0.1-0.1-0.2-0.1c-0.1,0-0.2-0.1-0.3-0.1c0.1-0.1,0.1-0.2,0.2-0.3c0-0.1,0.1-0.1,0.1-0.2
					c0,0,0,0,0,0c0,0,0,0,0-0.1c0.1-0.1,0.1-0.1,0.1-0.2c0-0.1,0.1-0.1,0.2-0.2c0,0,0,0,0,0c0.3-0.3,0.5-0.6,0.8-0.9c0,0,0,0,0,0h0
					c0.2-0.2,0.4-0.4,0.6-0.5c0-0.1,0.1-0.1,0.2-0.1c0,0,0.1-0.1,0.1-0.1c0.3-0.2,0.6-0.4,0.9-0.6c0.1,0,0.1-0.1,0.2-0.1
					c0,0,0.1-0.1,0.2-0.1c0.4-0.2,0.8-0.4,1.2-0.6c0,0,0.1,0,0.2-0.1h0c0,0,0,0,0.1,0l0,0c0,0,0,0,0-0.1c0.4-0.4,0.8-0.8,1.3-1.1
					c0.9-0.7,1.9-1.2,3-1.6c0.6-0.2,1.2-0.4,1.9-0.6C28.1,15.6,28.1,15.6,28.1,15.7z"/>
				<path d="M32.9,14.9c-1.1,0.1-2.3,0.2-3.4,0.4c0,0-0.1,0-0.1,0c-0.1,0-0.3,0.1-0.4,0.1c-0.1,0-0.2,0-0.3,0.1c0,0-0.1,0-0.1,0
					c0,0,0,0-0.1,0v0c-0.1,0-0.1,0-0.2,0c0,0,0-0.1,0-0.1c0.1,0,0.1,0,0.2,0c0,0,0,0,0.1,0c0,0,0.1,0,0.1,0c0.1,0,0.2,0,0.3-0.1
					c0.1,0,0.3-0.1,0.4-0.1c0,0,0.1,0,0.1,0C30.6,15,31.7,14.9,32.9,14.9z"/>
			</g>
			<g>
				<path class="st1" d="M24,26.2C24,26.2,24,26.2,24,26.2c0,0.1,0,0.1-0.1,0.1C23.9,26.3,24,26.2,24,26.2z"/>
			</g>
			<path d="M24,26.2C24,26.2,24,26.2,24,26.2c0,0.1,0,0.1-0.1,0.1C23.9,26.3,24,26.2,24,26.2z"/>
			<g>
				<path d="M29.8,36.4C29.8,36.4,29.7,36.4,29.8,36.4C29.7,36.4,29.7,36.4,29.8,36.4C29.8,36.4,29.8,36.4,29.8,36.4z"/>
			</g>
			<g>
				<path d="M29.8,36.4C29.8,36.4,29.7,36.4,29.8,36.4C29.7,36.4,29.7,36.4,29.8,36.4C29.8,36.4,29.8,36.4,29.8,36.4z"/>
			</g>
			<g>
				<path d="M29.8,36.4C29.8,36.4,29.7,36.4,29.8,36.4C29.7,36.4,29.7,36.4,29.8,36.4C29.8,36.4,29.8,36.4,29.8,36.4z"/>
			</g>
			<g>
				<path class="st1" d="M29.8,36.4C29.8,36.4,29.7,36.4,29.8,36.4C29.7,36.4,29.7,36.4,29.8,36.4C29.8,36.4,29.8,36.4,29.8,36.4z"
					/>
			</g>
			<path d="M29.8,36.4C29.8,36.4,29.7,36.4,29.8,36.4C29.7,36.4,29.7,36.4,29.8,36.4C29.8,36.4,29.8,36.4,29.8,36.4z"/>
			<g>
				<path d="M7.9,43.5c0.8-0.8,1.7-1.5,2.7-2c1-0.5,2.1-0.9,3.2-1.2c1.1-0.3,2.3-0.4,3.5-0.4c0.6,0,1.2,0,1.8,0.1c0.1,0,0.1,0,0.2,0
					l0,0c0,0,0,0,0,0c0.1-0.1,0.3-0.1,0.4-0.2l0.1,0c0.1,0,0.2-0.1,0.4-0.1l0,0c0.2-0.1,0.4-0.1,0.5-0.2c0.5-0.1,1-0.2,1.4-0.3
					l0.1,0c0,0,0,0,0,0c0.5-0.1,1-0.1,1.5-0.2c0.1,0,0.1,0,0.2,0l0,0c0.1,0,0.1,0,0.2,0c0,0,0.1,0,0.1,0c0.3,0,0.6,0,0.9,0
					c0,0,0,0,0,0c0,0,0,0,0,0c0.3,0,0.6,0,0.9,0c0.1,0,0.2,0,0.4,0c0,0,0,0,0.1,0c0.1,0,0.2,0,0.3,0c0.1,0,0.2,0,0.4,0
					c0,0,0.1,0,0.1,0c0.1,0,0.2,0,0.3,0c-0.3,0.8-0.5,1.6-0.5,2.4l0,0.1c0,0.1,0,0.2,0,0.3c0,0,0,0,0,0l0,0c0,0.1,0,0.2,0,0.4
					c-0.1,0-0.2,0-0.3,0.1c-0.4,0.1-0.9,0.2-1.4,0.3c0,0-0.1,0-0.1,0l0,0c0,0,0,0-0.1,0c-0.4,0.1-0.9,0.3-1.3,0.5
					c-0.2,0.1-0.4,0.2-0.5,0.2c-0.1,0-0.3,0.1-0.4,0.2c-0.4-0.2-0.9-0.5-1.3-0.8c-0.5-0.3-0.9-0.7-1.4-1.2c-0.3-0.3-0.6-0.7-1-1.1
					c-0.7-0.1-1.4-0.2-2-0.2c-1.2,0-2.3,0.1-3.5,0.3c-1.1,0.2-2.2,0.6-3.2,1C9.7,42.1,8.8,42.7,7.9,43.5z"/>
				<path d="M30.2,42.2C30.2,42.2,30.2,42.2,30.2,42.2L30.2,42.2L30.2,42.2c0.1,0,0.2,0,0.3,0c0.1,0,0.1,0,0.2,0
					c0.5,0.4,1.3,0.7,2.3,1c0,0,0.1,0.1,0.1,0.1h0c0.1,0.1,0.1,0.1,0.2,0.2h0c0,0,0,0.1,0.1,0.1C32,43.3,30.9,42.9,30.2,42.2
					L30.2,42.2L30.2,42.2z"/>
				<path d="M34,44.6c-0.3,1.2-0.6,1.8-1,2.4c-0.4,0.5-0.8,0.8-1.3,0.8c-0.5,0.1-1,0.1-1.5,0.1c-0.5,0-1-0.1-1.5-0.2
					c-1-0.2-2-0.5-3.1-1c-0.5-0.3-1-0.6-1.5-1c-0.4-0.3-0.8-0.6-1.1-1c-0.7,0-1.4,0-2.1,0.1c-1.2,0.1-2.3,0.4-3.4,0.8
					c-1.1,0.4-2.1,0.9-3.1,1.5c-0.9,0.6-1.8,1.4-2.5,2.2c0.7-0.9,1.5-1.7,2.4-2.4c0.9-0.7,2-1.2,3-1.6c1.1-0.4,2.2-0.7,3.4-0.9
					c0.6-0.1,1.2-0.1,1.8-0.1c0,0,0.1,0,0.1,0h0.1c0.1-0.1,0.2-0.1,0.3-0.2v0c0.2-0.1,0.3-0.2,0.5-0.2c0.1-0.1,0.3-0.1,0.4-0.2
					l0.2-0.1c0.5-0.2,1-0.4,1.5-0.5c0,0,0.1,0,0.1,0c0,0,0,0,0,0c0.3-0.1,0.7-0.2,1-0.3c0.1,0,0.1,0,0.2,0c0,0,0.1,0,0.1,0
					c0.1,0,0.2,0,0.3-0.1c0.3-0.1,0.6-0.1,0.9-0.2c0,0,0,0,0.1,0c0.2,0,0.3,0,0.5-0.1c0.3-0.1,0.6-0.1,0.9-0.1c0,0,0,0,0,0
					c0,0,0,0,0,0c0,0,0.1,0,0.1,0l0,0.2l0.1,0.1c0.6,0.5,1.7,1,3.2,1.3c0.1,0,0.2,0,0.3,0.1C33.7,44.1,33.8,44.3,34,44.6z"/>
				<path d="M29.4,39.8c0.2,0.9,0.4,1.6,0.5,2.1c0,0,0,0-0.1,0c-0.2,0-0.3,0-0.5,0c-0.2,0-0.3,0-0.5,0c0,0-0.1,0-0.1,0
					c-0.1,0-0.3,0-0.4,0c-0.3,0-0.5,0.1-0.8,0.1c0-0.1,0-0.2,0-0.2c0-0.1,0-0.1,0-0.2c0-0.1,0-0.1,0-0.2c0.1-0.8,0.3-1.6,0.5-2.3
					c0-0.1,0.1-0.2,0.1-0.2l0-0.1c0-0.1,0.1-0.2,0.1-0.3l0.1,0.4c0,0.5,0.4,0.8,0.8,0.9L29.4,39.8z"/>
				<path d="M30,39.7c0.2,1,0.4,1.7,0.5,2.1c0,0-0.1,0-0.1,0c0,0-0.1,0-0.1,0c0,0-0.1,0-0.1,0c0,0,0,0,0,0c-0.1-0.4-0.3-1.2-0.5-2.2
					c-0.1,0-0.2-0.1-0.3-0.1c-0.3,0-0.6-0.3-0.6-0.6l-0.2-0.7c0-0.1,0.1-0.2,0.1-0.2c0,0,0-0.1,0-0.1c0,0,0.1-0.1,0.1-0.1
					c0,0,0-0.1,0.1-0.1l0.2-0.3c0,0,0,0,0-0.1c0-0.1,0.1-0.1,0.2-0.2c0,0,0,0,0,0c0-0.1,0.1-0.1,0.1-0.2c0,0,0,0,0,0
					c0,0,0.1-0.1,0.1-0.1c0.2,0,0.6,0.1,0.9,0.2c0.1,0.1,0.1,0.1,0.2,0.2c0.1,0.1,0.1,0.1,0.2,0.2c0,0,0,0,0,0
					c0.1,0.2,0.2,0.4,0.4,0.6c0.1,0.2,0.2,0.4,0.3,0.5c0.2,0.4,0.4,0.7,0.6,1.1c0,0,0,0.1,0,0.1c0,0.1,0.1,0.1,0.1,0.2
					c0,0.1,0.1,0.1,0.1,0.2C31.2,39.9,30.5,39.8,30,39.7z"/>
				<path d="M33.3,43.5c-0.1-0.1-0.2-0.2-0.2-0.3c0.1,0,0.1,0,0.2,0C33.3,43.3,33.3,43.4,33.3,43.5z"/>
				<path d="M37.7,27.8c-0.2,0.1-0.4,0.2-0.5,0.4c-0.1,0.1-0.2,0.1-0.3,0.2c-0.1,0.1-0.2,0.1-0.3,0.2h0c0.1-0.1,0.2-0.1,0.3-0.2
					c0.1-0.1,0.2-0.1,0.3-0.2C37.3,28.1,37.5,28,37.7,27.8z"/>
				<path d="M27.1,28.6c-0.1,0.1-0.1,0.2-0.2,0.2c-0.4,0.5-0.7,1-1,1.5c0.2,0.3,0.3,0.7,0.4,1c0.2,0.4,0.3,0.9,0.4,1.3
					c0,0.2,0.1,0.4,0.1,0.5c-0.1,0.1-0.1,0.1-0.2,0.2c-0.3,0.2-0.5,0.5-0.7,0.7c-0.3,0.4-0.6,0.8-0.9,1.2c-0.1,0.1-0.1,0.2-0.2,0.3
					c-0.1,0-0.2,0-0.3-0.1c0,0,0,0-0.1,0c0,0,0,0,0,0c-0.1,0-0.2,0-0.3,0c-0.2,0-0.4-0.1-0.5-0.1c-0.1,0-0.2,0-0.3-0.1
					c-0.1,0-0.3,0-0.4-0.1c-0.1,0-0.1,0-0.2,0c-0.3,0-0.6-0.1-0.9-0.1c0-0.1,0-0.2,0.1-0.2c0-0.1,0-0.1,0.1-0.2l0-0.1
					c0.3-0.8,0.7-1.5,1.2-2.2c0.1-0.1,0.1-0.1,0.2-0.2c0.3-0.4,0.6-0.8,1-1.1c0.1-0.1,0.2-0.2,0.3-0.3h0c0.1-0.1,0.1-0.1,0.2-0.2
					c0.2-0.1,0.3-0.3,0.5-0.4c0.1,0,0.1-0.1,0.2-0.1l0,0c0,0,0,0,0-0.1c0,0,0-0.1,0-0.1c0.3-0.5,0.6-0.9,1-1.4
					c0.1-0.1,0.2-0.2,0.3-0.3C26.9,28.4,27,28.5,27.1,28.6z"/>
				<path d="M32.8,24.5c-0.1,0.1-0.3,0.1-0.4,0.2c-0.1,0-0.2,0.1-0.3,0.1c0,0-0.1,0-0.1,0.1c-1,0.5-1.9,1-2.8,1.7
					c-0.4,0.3-0.9,0.7-1.3,1.1c-0.1,0.1-0.2,0.2-0.4,0.4c0,0-0.1,0.1-0.1,0.1c0,0-0.1,0.1-0.1,0.1c0,0,0,0,0,0c0,0-0.1,0.1-0.1,0.1
					c-0.1,0-0.2-0.1-0.2-0.2c0,0,0.1-0.1,0.1-0.1c0,0,0,0,0,0c0,0,0.1-0.1,0.1-0.1c0.1-0.1,0.2-0.2,0.3-0.3c0.1-0.1,0.2-0.2,0.4-0.3
					c0.4-0.3,0.7-0.6,1.1-0.9c0.8-0.6,1.7-1.1,2.7-1.5c0.1,0,0.2-0.1,0.3-0.1c0,0,0.1,0,0.1,0c0.1-0.1,0.3-0.1,0.4-0.2H32.8z"/>
				<path d="M28.4,31.9L28.4,31.9c0,0.1-0.1,0.1-0.1,0.2c-0.1,0.1-0.1,0.2-0.2,0.3c0-0.2-0.1-0.3-0.1-0.5c0-0.1,0.1-0.2,0.1-0.2
					c0,0,0,0,0.1-0.1c0,0,0.1-0.1,0.1-0.1C28.4,31.6,28.4,31.7,28.4,31.9z"/>
				<path d="M28.1,37.3l0.2,0.7c-0.1,0.3-0.3,0.5-0.4,0.8c0,0,0,0,0,0c-0.2,0-0.3,0-0.5-0.1c0,0,0,0,0,0c-0.1,0-0.2,0-0.4,0
					c0,0,0,0-0.1,0c-0.1,0-0.2,0-0.2,0c0,0-0.1,0-0.1,0c-0.5,0-0.9-0.1-1.4-0.1h-0.1l0,0c-0.2,0-0.5,0-0.7,0h-0.1c0-0.1,0-0.1,0-0.2
					c0-0.1,0-0.2,0-0.2l0,0v0c0.2-0.7,0.4-1.4,0.7-2c0.1-0.1,0.1-0.2,0.2-0.3l0,0c0-0.1,0.1-0.2,0.1-0.2c0.2-0.4,0.5-0.8,0.9-1.2
					c0.1-0.2,0.3-0.3,0.4-0.5c0.1-0.1,0.1-0.1,0.2-0.2c0.1-0.1,0.1-0.1,0.2-0.2c0.1-0.1,0.1-0.1,0.2-0.2h0c0,0,0-0.1,0-0.1
					c0,0,0,0,0-0.1c0.1-0.3,0.3-0.6,0.5-0.9c0,0.1,0,0.2,0,0.2c0,0.1,0,0.2,0.1,0.3c-0.1,0.2-0.2,0.4-0.3,0.6
					c0.2,0.3,0.4,0.6,0.5,0.9c0,0,0,0,0,0c0.1,0.3,0.1,0.7,0.2,1c0.1,0.4,0.1,0.7,0.2,1.1C28.3,36.6,28.1,36.9,28.1,37.3z"/>
				<path d="M29.1,36.6C29.1,36.6,29.1,36.6,29.1,36.6c0,0.1-0.1,0.1-0.1,0.2c0,0,0,0,0,0c0,0,0,0,0,0.1c0,0,0,0,0,0
					c0,0-0.1,0.1-0.1,0.1c0,0,0,0,0,0c0,0.1-0.1,0.1-0.1,0.2c0,0,0,0,0,0c0,0.1-0.1,0.1-0.1,0.2c0,0,0,0.1,0,0.1c0,0,0,0,0,0
					c0,0.1-0.1,0.1-0.1,0.2l-0.1-0.4c0-0.3,0.3-0.6,0.6-0.6c-0.1-0.4-0.2-0.9-0.3-1.3c0,0.1,0.1,0.1,0.1,0.2
					C28.9,35.9,29,36.3,29.1,36.6z"/>
				<path d="M36.3,25.7c-1,0.5-2,1-3,1.6c-0.4,0.3-0.9,0.6-1.3,0.9c-0.1,0.1-0.2,0.1-0.2,0.2c-0.1,0.1-0.2,0.1-0.2,0.2h-0.3
					c0.1-0.1,0.2-0.1,0.3-0.2c0.1-0.1,0.2-0.1,0.3-0.2c0.5-0.3,1-0.7,1.5-0.9C34.3,26.7,35.3,26.2,36.3,25.7z"/>
				<path d="M5.2,38.3c0.9-0.7,1.9-1.3,2.9-1.7c1.1-0.4,2.2-0.7,3.3-0.9c1.2-0.2,2.3-0.2,3.5-0.1c0.6,0.1,1.2,0.1,1.8,0.3
					c0.1,0,0.1,0,0.2,0c0,0,0,0,0,0c0.1,0,0.2-0.1,0.4-0.1c0.2,0,0.3-0.1,0.4-0.1c0.1,0,0.2,0,0.3-0.1c0.1,0,0.2,0,0.3-0.1
					c0.5-0.1,1.1-0.1,1.6-0.1c0.1,0,0.1,0,0.2,0c0,0,0,0,0,0c0.4,0,0.8,0,1.2,0c0.1,0,0.1,0,0.2,0c0,0,0,0,0,0c0.1,0,0.2,0,0.3,0
					c0.3,0,0.7,0.1,1,0.1c0,0,0,0,0.1,0c0.1,0,0.3,0,0.4,0.1c0.3,0,0.6,0.1,1,0.2l0,0l0,0c0.1,0,0.2,0,0.3,0.1l0,0
					c0.1,0,0.2,0,0.2,0c-0.1,0.2-0.2,0.5-0.3,0.7c-0.1,0.4-0.3,0.7-0.3,1.1c0,0,0,0,0,0c0,0.1,0,0.1,0,0.2c0,0.1-0.1,0.2-0.1,0.4
					c0,0.1,0,0.2-0.1,0.3c-0.1,0-0.3,0-0.4,0c-0.4,0-0.9,0.1-1.3,0.1c-0.1,0-0.2,0-0.3,0c0,0-0.1,0-0.1,0c-0.4,0.1-0.7,0.1-1.1,0.2
					c-0.3,0.1-0.6,0.2-0.9,0.3c-0.1,0-0.2,0.1-0.3,0.1c-0.2-0.1-0.3-0.3-0.5-0.4c-0.4-0.4-0.8-0.8-1.2-1.3c-0.3-0.4-0.6-0.8-0.8-1.2
					c-0.6-0.2-1.3-0.3-2-0.4c-1.2-0.2-2.3-0.2-3.5-0.1c-1.1,0.1-2.3,0.3-3.3,0.7C7.1,37.1,6.1,37.6,5.2,38.3z"/>
			</g>
		</g>
		<g>
			<g>
				<path d="M49.5,44.2c-2,1.1-4.2,2-6.5,2.7c-0.2,0.1-0.5,0.1-0.7,0.2c-1.6,0.4-3.2,0.7-4.8,1c-0.6,0.1-1.3,0.2-1.9,0.2
					c-5,0.5-10.1,0.1-15.2-0.6c-0.1,0-0.3,0.1-0.3,0.2c0,0.1,0.1,0.3,0.2,0.3c5.2,1.2,10.6,2,16.1,1.8c2-0.1,4-0.3,5.9-0.6
					c0.8-0.1,1.5-0.3,2.3-0.5c0.8-0.2,1.7-0.4,2.5-0.7c0.5-0.2,1-0.3,1.5-0.5c1.3-0.5,2.6-1.1,3.9-1.8c-0.7,0.2-1.2,0-1.8-0.6
					c-0.3-0.3-0.6-0.7-0.8-1.1L49.5,44.2z"/>
			</g>
			<g>
				<path d="M74.6,0c-0.2,0.3-0.4,0.5-0.6,0.7l-0.6,0.7c-0.4,0.4-0.8,0.9-1.1,1.3c-0.7,0.9-1.4,1.9-1.9,2.9c-0.6,1-1,2-1.4,3.1
					c-0.2,0.6-0.4,1.2-0.5,1.8c0.3,0.3,0.5,0.7,0.7,1c0.3,0.5,0.5,0.9,0.7,1.4c0.1,0.4,0.3,0.7,0.4,1.1c0,0,0,0,0,0
					c-0.5,0.3-0.9,0.6-1.3,0.9c-0.3,0.3-0.6,0.5-0.9,0.8c-0.2,0.1-0.3,0.3-0.5,0.5c-0.3-0.3-0.6-0.6-0.9-0.9
					c-0.3-0.2-0.6-0.4-0.9-0.6c0.2-0.6,0.4-1.1,0.7-1.7c0.2-0.4,0.5-0.9,0.7-1.3c0.3-0.4,0.5-0.8,0.9-1.2c0,0,0,0,0,0l0,0
					c0-0.1,0-0.1,0-0.2c0.1-0.6,0.3-1.1,0.5-1.6c0.4-1.1,0.9-2.1,1.5-3.1c0.6-1,1.3-1.9,2-2.8c0.4-0.4,0.8-0.9,1.2-1.3L74,0.7
					C74.2,0.5,74.4,0.3,74.6,0z"/>
			</g>
			<g>
				<line class="st0" x1="67.2" y1="21.2" x2="67.2" y2="21.1"/>
				<path class="st1" d="M67.2,21.1C67.2,21.1,67.2,21.1,67.2,21.1L67.2,21.1L67.2,21.1z"/>
			</g>
			<g>
				<path d="M67.2,21.1C67.2,21.1,67.2,21.1,67.2,21.1L67.2,21.1L67.2,21.1z"/>
				<path d="M82.3,7.3c-1.1,0.3-2.2,0.6-3.3,1.1c-1.1,0.5-2.1,1-3,1.7c-1,0.7-1.9,1.4-2.7,2.2c-0.5,0.5-0.9,1-1.3,1.5
					c0.1,0.5,0.1,0.9,0.2,1.3c0,0.6,0,1.1,0,1.6c-0.1,1-0.4,2-0.7,2.9l0,0c-0.1,0-0.1,0-0.2,0c-0.5,0.1-0.9,0.1-1.3,0.2l-0.1,0l0,0
					c0,0,0,0,0,0c-0.1-0.4-0.3-0.9-0.5-1.3c0-0.1-0.1-0.2-0.1-0.2L69,18.2c-0.3-0.6-0.7-1.1-1.1-1.6c-0.1-0.1-0.2-0.2-0.3-0.3
					c0,0,0,0,0,0c0.1-0.1,0.2-0.2,0.3-0.3c0.3-0.3,0.7-0.6,1.1-0.9c0.4-0.3,0.8-0.6,1.2-0.8c0,0,0,0,0.1,0c0.4-0.2,0.8-0.5,1.3-0.7
					c0,0,0,0,0.1,0c0,0,0.1-0.1,0.1-0.1c0,0,0,0,0,0c0.4-0.5,0.8-0.9,1.2-1.3c0.9-0.8,1.8-1.5,2.8-2.2c1-0.6,2-1.2,3.1-1.6
					C80.1,7.8,81.2,7.5,82.3,7.3z"/>
			</g>
			<g>
				<line class="st0" x1="67.6" y1="23.1" x2="67.6" y2="23.2"/>
				<line class="st0" x1="67.2" y1="21.1" x2="67.2" y2="21.1"/>
				<path class="st1" d="M67.6,23.2C67.6,23.1,67.6,23.1,67.6,23.2C67.5,23.1,67.6,23.1,67.6,23.2L67.6,23.2z"/>
				<path class="st1" d="M65.2,14.4C65.2,14.4,65.2,14.3,65.2,14.4C65.2,14.3,65.2,14.3,65.2,14.4C65.2,14.3,65.2,14.4,65.2,14.4z"
					/>
				<path class="st1" d="M67.2,21.1C67.2,21.1,67.2,21.1,67.2,21.1L67.2,21.1L67.2,21.1z"/>
			</g>
			<path d="M65.2,14.4C65.2,14.4,65.2,14.3,65.2,14.4C65.2,14.3,65.2,14.3,65.2,14.4C65.2,14.3,65.2,14.4,65.2,14.4z"/>
			<g>
				<path d="M67.6,23.2C67.6,23.1,67.6,23.1,67.6,23.2C67.5,23.1,67.6,23.1,67.6,23.2L67.6,23.2z"/>
				<path d="M69.6,20c-0.7,0.2-1.3,0.4-1.8,0.6c-0.1,0-0.2,0.1-0.3,0.1c0,0,0,0-0.1,0c-0.1,0-0.1,0-0.2,0.1l-0.1,0c0,0,0,0-0.1,0
					c-0.1,0-0.1,0.1-0.2,0.1c-0.1,0.1-0.3,0.1-0.4,0.2c-0.4-0.4-0.7-0.8-1.2-1.2c-0.1,0-0.1-0.1-0.2-0.2c0,0-0.1-0.1-0.1-0.1
					c-0.3-0.2-0.5-0.4-0.8-0.6c0,0-0.1-0.1-0.1-0.1L64,19c0-0.6,0.1-1.2,0.1-1.8c0.1-0.5,0.2-0.9,0.3-1.4c0.1-0.4,0.2-0.7,0.4-1.1
					c-0.3-0.5-0.7-1-1.1-1.5c-0.7-0.8-1.6-1.5-2.5-2.1c-0.9-0.6-1.9-1.1-3-1.5c-1.1-0.4-2.2-0.6-3.3-0.8c1.1,0.2,2.2,0.4,3.3,0.7
					c1.1,0.4,2.1,0.8,3.1,1.4c1,0.6,1.9,1.3,2.6,2.1c0.4,0.4,0.7,0.8,1,1.3c0,0,0,0.1,0.1,0.1c0,0,0,0,0,0c0,0,0,0,0,0
					c0,0,0.1,0,0.1,0.1c0.1,0.1,0.3,0.2,0.4,0.3c0.3,0.2,0.5,0.4,0.7,0.5c0.4,0.3,0.7,0.6,1,1c0,0,0,0,0.1,0.1c0,0,0,0.1,0.1,0.1
					c0.1,0.2,0.3,0.3,0.4,0.5c0.4,0.5,0.7,1,1,1.6c0,0.1,0.1,0.1,0.1,0.2l0,0.1C69.3,19.1,69.4,19.6,69.6,20z"/>
				<path d="M67.2,21.1C67.2,21.1,67.2,21.1,67.2,21.1L67.2,21.1L67.2,21.1z"/>
			</g>
			<g>
				<path class="st1" d="M67.6,23.2C67.6,23.1,67.6,23.1,67.6,23.2C67.5,23.1,67.6,23.1,67.6,23.2L67.6,23.2z"/>
				<path class="st1" d="M67.2,21.1C67.2,21.1,67.2,21.1,67.2,21.1L67.2,21.1L67.2,21.1z"/>
				<path class="st1" d="M73.1,19.8L73.1,19.8C73,19.9,73,19.9,73.1,19.8C73,19.8,73.1,19.8,73.1,19.8z"/>
			</g>
			<g>
				<path d="M73.1,19.8L73.1,19.8C73,19.9,73,19.9,73.1,19.8C73,19.8,73.1,19.8,73.1,19.8z"/>
				<g>
					<path d="M67.6,23.2C67.6,23.1,67.6,23.1,67.6,23.2C67.5,23.1,67.6,23.1,67.6,23.2L67.6,23.2z"/>
				</g>
			</g>
			<g>
				<path class="st1" d="M67.6,23.2C67.6,23.1,67.6,23.1,67.6,23.2C67.5,23.1,67.6,23.1,67.6,23.2L67.6,23.2z"/>
			</g>
			<g>
				<path d="M56.6,14.8l0,0.2c-0.1,0-0.1,0-0.2-0.1c0,0,0,0-0.1,0c0,0-0.1,0-0.1,0l0-0.2c0,0,0.1,0,0.1,0v0c0,0,0,0,0.1,0
					C56.5,14.7,56.6,14.8,56.6,14.8z"/>
				<path d="M68.2,24.8c-0.9,0.1-1.7,0.4-2.4,0.6c0,0-0.1,0-0.1,0c-0.1,0-0.1,0-0.2,0.1c-0.1,0-0.3,0.1-0.4,0.2c0,0,0-0.1-0.1-0.1
					c0-0.1-0.1-0.1-0.1-0.2c-0.3-0.4-0.6-0.7-0.9-1.1c0,0,0,0,0,0l-0.1-0.1c-0.3-0.3-0.7-0.6-1.1-0.9c-0.2-0.1-0.3-0.3-0.5-0.4h0
					c-0.1,0-0.1-0.1-0.2-0.1c0-0.5-0.1-0.9-0.1-1.4c0-0.5,0-0.9,0.1-1.4c0-0.4,0.1-0.7,0.2-1.1c-0.4-0.5-0.8-0.9-1.3-1.4
					c-0.8-0.7-1.8-1.3-2.7-1.8c-0.5-0.2-0.9-0.4-1.4-0.6l0-0.2c0.5,0.2,1.1,0.4,1.6,0.6c1,0.5,2,1,2.9,1.8c0.4,0.4,0.8,0.7,1.2,1.2
					c0,0,0,0,0,0c0,0,0.1,0.1,0.1,0.1c0,0,0.1,0,0.1,0c0.4,0.2,0.8,0.4,1.2,0.7c0,0,0,0,0.1,0c0.1,0,0.1,0.1,0.2,0.1
					c0.3,0.2,0.5,0.4,0.8,0.6l0,0c0,0,0.1,0.1,0.1,0.1l0,0c0.4,0.4,0.8,0.7,1.1,1.2c0.1,0.1,0.1,0.1,0.1,0.2
					c0.1,0.1,0.2,0.2,0.2,0.3c0,0.1,0.1,0.1,0.1,0.2c0.1,0.1,0.2,0.2,0.2,0.3c0.1,0.1,0.1,0.2,0.2,0.3v0c0.1,0.1,0.1,0.2,0.2,0.3
					c0,0,0.1,0.1,0.1,0.2c0,0,0,0,0,0.1c0.1,0.1,0.1,0.3,0.2,0.4c0,0.1,0.1,0.2,0.1,0.2c0.1,0.2,0.2,0.4,0.2,0.6c0,0,0,0.1,0,0.1
					C68.2,24.6,68.2,24.7,68.2,24.8z"/>
			</g>
			<g>
				<line class="st0" x1="66.1" y1="28.4" x2="66.1" y2="28.4"/>
				<path d="M57.2,22.8c-0.1-0.1-0.1-0.1-0.2-0.2c0,0,0,0-0.1-0.1c0,0-0.1-0.1-0.1-0.1c-0.1-0.1-0.2-0.2-0.4-0.3
					c-0.9-0.6-1.9-1.2-2.9-1.6c-1-0.4-2.1-0.8-3.2-1.1c1.1,0.3,2.2,0.6,3.2,1c1,0.4,2.1,0.9,3,1.5c0.1,0,0.1,0.1,0.2,0.1
					c0,0,0.1,0.1,0.1,0.1c0,0,0,0,0.1,0v0c0.1,0,0.1,0.1,0.2,0.1v0C57.1,22.6,57.1,22.7,57.2,22.8z"/>
				<path d="M64.6,32.7c-0.1,0-0.2,0-0.3,0h0c0,0-0.1,0-0.1,0c-0.1,0-0.2,0-0.3,0c0,0,0,0,0,0l0,0h0c-0.6,0-1.2,0.1-1.7,0.1
					c0,0,0,0,0,0c-0.1,0-0.2,0-0.3,0c-0.1,0-0.2,0-0.3,0c0,0,0,0,0,0c0-0.1-0.1-0.1-0.1-0.2c-0.2-0.4-0.4-0.8-0.7-1.2l-0.1-0.1
					c0,0,0,0,0,0c-0.2-0.4-0.5-0.7-0.8-1c-0.2-0.2-0.3-0.4-0.5-0.5c-0.1-0.1-0.1-0.1-0.2-0.2l0,0c0-0.4,0.1-0.8,0.2-1.2
					c0.1-0.4,0.2-0.9,0.3-1.3c0.1-0.3,0.2-0.7,0.4-1.1c-0.3-0.5-0.6-1-1-1.5c-0.4-0.5-0.9-1-1.4-1.4l0-0.3c0.6,0.5,1.2,1,1.7,1.5
					c0.4,0.4,0.7,0.8,1,1.3l0,0.1c0,0,0,0,0,0.1c0.1,0,0.1,0.1,0.2,0.1h0c0,0,0.1,0,0.1,0.1l0,0c0.1,0,0.1,0.1,0.2,0.1v0
					c0.3,0.2,0.5,0.4,0.7,0.6c0.4,0.3,0.7,0.7,1,1.1c0,0,0,0,0,0c0,0,0,0,0,0c0.4,0.4,0.6,0.9,0.9,1.3c0,0.1,0.1,0.1,0.1,0.2
					c0,0,0,0,0,0c0,0.1,0.1,0.1,0.1,0.2c0,0.1,0.1,0.1,0.1,0.2c0.1,0.1,0.1,0.3,0.2,0.5c0,0,0,0.1,0,0.1c0.2,0.5,0.4,0.9,0.5,1.4
					c0,0,0,0,0,0c0,0.1,0,0.1,0,0.2c0,0,0,0,0,0.1c0,0.2,0.1,0.4,0.1,0.6l0,0C64.6,32.5,64.6,32.6,64.6,32.7z"/>
				<path d="M65.6,26.6c-0.1-0.3-0.3-0.5-0.5-0.8c0.1-0.1,0.3-0.1,0.4-0.1c0.1,0,0.1,0,0.2-0.1c0,0,0,0,0,0c0.8-0.3,1.6-0.5,2.5-0.6
					l0,0c0.1,0,0.1,0,0.2,0l0.1,0c0.5-0.1,1-0.1,1.5-0.1c0.1,0,0.3,0,0.4,0c0.1,0,0.2,0,0.3,0c0.3,0,0.5,0,0.8,0.1c0,0,0,0,0.1,0
					l0,0c0.1,0,0.1,0,0.2-0.1c0,0,0,0,0,0c0.6-0.2,1.1-0.4,1.7-0.5c1.1-0.3,2.3-0.4,3.5-0.5c1.2,0,2.3,0.1,3.4,0.3
					c1.1,0.3,2.2,0.7,3.2,1.2c-1-0.5-2.1-0.8-3.2-1c-1.1-0.2-2.2-0.3-3.4-0.2c-1.1,0.1-2.3,0.2-3.4,0.6c-0.6,0.2-1.3,0.4-1.9,0.7
					c-0.2,0.5-0.3,0.9-0.6,1.3c-0.3,0.5-0.6,1-0.9,1.5c-0.1,0.1-0.1,0.2-0.2,0.3c0,0-0.1,0-0.1,0l0,0c-0.4-0.1-0.8-0.1-1.2-0.1
					c-0.5,0-1.1,0-1.6,0c-0.3,0-0.5,0-0.7,0.1c0,0,0,0-0.1,0c0,0,0-0.1,0-0.1c0,0,0,0,0,0c0,0,0-0.1,0-0.1l0,0c0,0,0,0,0,0
					c-0.1-0.3-0.2-0.5-0.3-0.8l0,0c0-0.1-0.1-0.2-0.1-0.3C65.8,26.9,65.7,26.7,65.6,26.6z"/>
				<path d="M82.1,29.9c-1-0.5-2.1-1-3.1-1.3c-1.1-0.3-2.2-0.4-3.4-0.4c-1.1,0-2.3,0.1-3.4,0.3c-0.6,0.2-1.3,0.3-1.9,0.6
					c-0.2,0.5-0.4,0.9-0.7,1.3c-0.3,0.5-0.7,1-1,1.4c-0.4,0.4-0.8,0.8-1.1,1.2c-0.1,0-0.2,0-0.2-0.1c-0.2-0.1-0.5-0.1-0.7-0.1
					c-0.5-0.1-1.1-0.1-1.6-0.1c0,0,0,0,0,0c0,0,0,0,0-0.1l-0.1-0.4c0,0,0,0,0,0c0,0,0,0,0,0c0-0.1,0-0.2-0.1-0.3
					c0-0.1,0-0.2-0.1-0.2c0,0,0,0,0,0l0,0c0-0.1,0-0.2-0.1-0.2c-0.1-0.5-0.3-1-0.5-1.5c-0.1-0.2-0.1-0.3-0.2-0.5
					c0-0.1,0-0.1-0.1-0.2c0,0,0-0.1-0.1-0.1c0.2,0,0.3-0.1,0.5-0.1c0.1,0,0.2-0.1,0.3-0.1c0.2-0.1,0.5-0.1,0.7-0.1c0,0,0,0,0,0
					c0.3-0.1,0.6-0.1,0.9-0.2c0.1,0,0.1,0,0.2,0c0.2,0,0.5-0.1,0.7-0.1c0.5,0,1-0.1,1.5,0c0.3,0,0.6,0,1,0.1c0,0,0.1,0,0.1,0
					c0.1,0,0.2,0,0.2,0c0,0,0.1,0,0.1,0l0,0c0,0,0.1,0,0.1,0c0,0,0,0,0-0.1l0,0c0,0,0,0,0,0c0.6-0.2,1.2-0.3,1.7-0.4
					c1.2-0.2,2.3-0.3,3.5-0.2c1.2,0.1,2.3,0.2,3.4,0.6C80.1,28.8,81.1,29.3,82.1,29.9z"/>
				<path d="M56.6,18.9c0,0.1,0,0.1,0,0.2c-0.1,0-0.1-0.1-0.2-0.1c0,0,0,0-0.1,0v0c0,0-0.1,0-0.1-0.1c-0.6-0.3-1.3-0.6-1.9-0.8
					c-1.1-0.4-2.2-0.7-3.3-0.9c1.1,0.2,2.2,0.5,3.3,0.8c0.6,0.2,1.3,0.5,1.9,0.7c0,0,0.1,0,0.1,0.1c0,0,0.1,0,0.1,0v0
					C56.5,18.8,56.6,18.8,56.6,18.9z"/>
				<path d="M66.1,28.4L66.1,28.4C66.1,28.4,66.1,28.4,66.1,28.4C66.1,28.4,66.1,28.4,66.1,28.4L66.1,28.4c-0.2,0-0.4,0.1-0.6,0.1
					c-0.4,0.1-0.8,0.2-1.2,0.3c-0.2,0.1-0.5,0.1-0.7,0.2c0-0.1-0.1-0.1-0.1-0.2c-0.1-0.2-0.2-0.4-0.4-0.6c0,0,0,0,0,0h0
					c-0.2-0.2-0.3-0.4-0.5-0.7c0,0-0.1-0.1-0.1-0.1c0,0,0,0,0,0c-0.3-0.3-0.6-0.6-0.9-0.9c-0.3-0.2-0.6-0.5-0.9-0.7
					c0,0-0.1-0.1-0.1-0.1c0-0.1,0-0.2,0-0.2c0-0.5,0.1-0.9,0.2-1.4c0.1-0.4,0.2-0.7,0.3-1.1c-0.3-0.5-0.7-1-1.1-1.4
					c-0.8-0.8-1.6-1.4-2.6-2c-0.1-0.1-0.3-0.2-0.4-0.2v0c0-0.1,0-0.1,0-0.2l0,0c0.2,0.1,0.4,0.2,0.6,0.3c1,0.5,1.9,1.2,2.7,2
					c0.4,0.4,0.8,0.8,1.1,1.3c0,0,0,0,0,0c0,0,0,0.1,0.1,0.1c0,0,0.1,0,0.1,0.1h0c0.2,0.1,0.4,0.2,0.6,0.4c0.1,0,0.1,0.1,0.2,0.1
					c0.1,0.1,0.2,0.2,0.3,0.3c0.4,0.3,0.8,0.7,1.1,1c0,0,0,0,0.1,0.1c0,0,0,0,0.1,0.1c0.3,0.3,0.5,0.6,0.7,0.9l0,0
					c0,0.1,0.1,0.1,0.1,0.2l0,0.1c0,0,0.1,0.1,0.1,0.2c0.2,0.3,0.4,0.6,0.5,0.8c0,0,0,0.1,0.1,0.1c0,0.1,0.1,0.2,0.1,0.3
					c0.2,0.3,0.3,0.7,0.4,1c0,0,0,0,0,0c0,0,0,0,0,0C66.1,28.3,66.1,28.3,66.1,28.4z"/>
				<path d="M66.8,21.6c-0.1-0.1-0.1-0.2-0.2-0.2c0.1-0.1,0.2-0.1,0.3-0.1c0.1,0,0.1-0.1,0.2-0.1c0,0,0,0,0,0c0,0,0.1,0,0.1,0
					c0.1,0,0.1-0.1,0.2-0.1c0.1,0,0.2-0.1,0.2-0.1c0,0,0,0,0,0c0.4-0.2,0.8-0.3,1.2-0.4c0,0,0,0,0,0l0,0c0.3-0.1,0.5-0.2,0.8-0.2
					c0.1,0,0.1,0,0.2-0.1c0,0,0.1,0,0.1,0c0.4-0.1,0.7-0.2,1.1-0.2c0.1,0,0.1,0,0.2,0c0.1,0,0.1,0,0.2,0c0.4-0.1,0.9-0.1,1.3-0.1
					c0.1,0,0.1,0,0.2,0l0,0c0,0,0,0,0.1,0l0,0c0,0,0.1,0,0.1,0c0.5-0.3,1.1-0.5,1.7-0.7c1.1-0.4,2.3-0.6,3.4-0.7
					c1.1-0.1,2.3-0.1,3.4,0.1c1.1,0.2,2.2,0.5,3.3,0.9c-1.1-0.4-2.2-0.7-3.3-0.8c-1.1-0.1-2.3-0.1-3.4,0c-1.1,0.1-2.3,0.4-3.3,0.8
					c-0.6,0.2-1.2,0.5-1.8,0.8c-0.1,0.5-0.3,0.9-0.4,1.3c-0.2,0.5-0.5,1-0.7,1.5c-0.3,0.5-0.6,1-1,1.4c0,0,0,0,0,0
					c-0.1,0-0.2,0-0.3,0c-0.2,0-0.4,0-0.5,0c-0.5,0-1,0.1-1.5,0.2c0,0-0.1,0-0.2,0l0-0.1c0-0.1-0.1-0.2-0.1-0.3c0,0,0-0.1,0-0.1
					c-0.1-0.2-0.1-0.4-0.2-0.5L68,23.5c-0.1-0.1-0.1-0.3-0.2-0.4c0-0.1-0.1-0.1-0.1-0.2c-0.1-0.1-0.2-0.3-0.2-0.4l0,0
					c-0.1-0.1-0.2-0.3-0.2-0.4L67.2,22c-0.1-0.1-0.1-0.2-0.2-0.3C66.9,21.7,66.9,21.7,66.8,21.6z"/>
			</g>
			<g>
				<path class="st1" d="M70.3,28.6C70.3,28.7,70.3,28.7,70.3,28.6c-0.1,0.1-0.1,0.1-0.1,0.1C70.2,28.7,70.3,28.7,70.3,28.6z"/>
			</g>
			<path d="M70.3,28.6C70.3,28.7,70.3,28.7,70.3,28.6c-0.1,0.1-0.1,0.1-0.1,0.1C70.2,28.7,70.3,28.7,70.3,28.6z"/>
			<g>
				<path d="M62,41.7C62,41.7,62,41.7,62,41.7C62,41.7,62,41.7,62,41.7C62,41.7,62,41.7,62,41.7z"/>
			</g>
			<g>
				<path d="M62,41.7C62,41.7,62,41.7,62,41.7C62,41.7,62,41.7,62,41.7C62,41.7,62,41.7,62,41.7z"/>
			</g>
			<g>
				<path d="M62,41.7C62,41.7,62,41.7,62,41.7C62,41.7,62,41.7,62,41.7C62,41.7,62,41.7,62,41.7z"/>
			</g>
			<g>
				<path class="st1" d="M62,41.7C62,41.7,62,41.7,62,41.7C62,41.7,62,41.7,62,41.7C62,41.7,62,41.7,62,41.7z"/>
			</g>
			<path d="M62,41.7C62,41.7,62,41.7,62,41.7C62,41.7,62,41.7,62,41.7C62,41.7,62,41.7,62,41.7z"/>
			<g>
				<path d="M48.7,24.7c0.1,0.1,0.2,0.1,0.3,0.2H49C48.9,24.8,48.8,24.8,48.7,24.7c-0.1-0.1-0.3-0.1-0.4-0.2
					c-0.1-0.1-0.3-0.2-0.4-0.2c0.1,0.1,0.3,0.2,0.4,0.2C48.5,24.6,48.6,24.7,48.7,24.7z"/>
				<path d="M56.8,37.3l-0.4,1.6c0,0.2-0.1,0.4-0.3,0.5c-0.1,0-0.2,0-0.3,0c0,0,0,0,0-0.1c0,0,0,0,0-0.1c0,0,0-0.1,0-0.1
					c0.1,0,0.3-0.1,0.3-0.3l0,0l0.4-1.6c0-0.1-0.1-0.2-0.3-0.3c0,0,0,0-0.1,0c0,0-0.1,0-0.2,0.1c-0.1,0-0.1,0-0.2,0
					c-0.1,0-0.3,0.1-0.5,0.1c0-0.1,0-0.1-0.1-0.2c0-0.1,0-0.1-0.1-0.2c-0.1-0.1-0.1-0.3-0.2-0.4c-0.1-0.2-0.2-0.3-0.3-0.5
					c-0.1-0.1-0.1-0.2-0.2-0.4c0.1-0.4,0.3-0.7,0.4-1.1c0.2-0.4,0.4-0.8,0.6-1.2c0.2-0.3,0.4-0.6,0.6-0.9c-0.2-0.6-0.4-1.1-0.7-1.7
					c-0.4-0.8-1-1.5-1.6-2.2c-0.1-0.1-0.1-0.1-0.2-0.2c0-0.1-0.1-0.1-0.1-0.2c0,0,0,0,0,0h0.3c0.1,0.1,0.1,0.1,0.2,0.2
					c0.1,0.1,0.1,0.1,0.2,0.2c0.6,0.7,1.2,1.4,1.7,2.1c0.3,0.5,0.5,1,0.7,1.5c0,0,0,0.1,0,0.1v0l0,0c0.1,0.1,0.1,0.1,0.2,0.2
					c0,0,0.1,0.1,0.1,0.1l0,0l0.1,0.1l0,0c0.1,0.1,0.1,0.1,0.1,0.2c-0.2,1.3-0.5,2.5-0.7,3.7C56.5,36.6,56.8,36.9,56.8,37.3
					L56.8,37.3z"/>
				<path d="M59.1,38.8C59.1,38.8,59.1,38.9,59.1,38.8c0,0.2,0,0.3,0,0.4c0,0.1,0,0.3,0,0.4c0,0,0,0.1,0,0.1c0,0.1,0,0.2,0,0.3
					c-0.8-0.2-1.6-0.4-2.4-0.5l-0.1,0c0,0,0,0,0,0c0.1-0.2,0.2-0.3,0.2-0.5l0.4-1.6l0-0.1c0-0.4-0.2-0.7-0.6-0.8
					c0.2-1.2,0.4-2.3,0.6-3.3c0.1,0.1,0.2,0.2,0.2,0.3c0.3,0.4,0.5,0.8,0.7,1.2l0,0.1c0,0,0,0,0,0c0.2,0.5,0.4,0.9,0.6,1.4
					c0,0.1,0,0.1,0,0.2h0c0,0,0,0.1,0,0.1c0,0,0,0.1,0,0.1c0.1,0.3,0.1,0.6,0.2,0.8c0,0,0,0,0,0c0,0,0,0,0,0c0,0.3,0.1,0.6,0.1,1
					C59.1,38.6,59.1,38.7,59.1,38.8z"/>
				<path d="M49.2,28.6c-0.1-0.1-0.1-0.1-0.2-0.2c0,0,0,0,0,0c-0.1-0.1-0.1-0.1-0.2-0.2h0.1c0.1,0,0.1,0.1,0.2,0.1c0,0,0,0,0,0
					c0.1,0.1,0.1,0.1,0.2,0.2c0.8,0.7,1.5,1.4,2.1,2.2c0.7,0.9,1.3,1.8,1.8,2.8c0.2,0.5,0.4,1,0.5,1.6c0,0,0,0.1,0,0.1
					c0,0,0,0.1,0,0.1c0.1,0.1,0.1,0.2,0.2,0.3l0,0c0.1,0.1,0.2,0.3,0.3,0.4c0.1,0.1,0.2,0.3,0.2,0.4l0.1,0.2
					c0.1,0.1,0.1,0.2,0.2,0.3c0,0.1,0.1,0.1,0.1,0.2c0,0.1,0.1,0.1,0.1,0.2c-0.7,0.1-1.8,0.3-3.2,0.4c0-0.1,0.1-0.1,0.1-0.2
					c0-0.1,0.1-0.1,0.1-0.2c0,0,0-0.1,0.1-0.1c0.2-0.3,0.5-0.7,0.8-1c0.2-0.3,0.4-0.5,0.7-0.8c-0.1-0.6-0.2-1.2-0.5-1.7
					c-0.4-1-0.9-1.9-1.6-2.8C50.7,30,50,29.3,49.2,28.6z"/>
				<path d="M55.5,39.8C55.5,39.8,55.5,39.8,55.5,39.8c-0.3,1.5-0.6,2.4-0.6,2.5l0,0.1l0,0c-0.8,0.8-2.7,1.3-4.7,1.6
					c0-0.1-0.1-0.1-0.1-0.2c0,0,0,0,0-0.1c0,0,0-0.1-0.1-0.1c0-0.1-0.1-0.2-0.1-0.3c-0.2-0.6-0.2-1.1-0.1-1.5
					c0.1-0.4,0.3-0.8,0.4-1.2c0-0.1,0.1-0.2,0.1-0.3c0-0.1,0-0.1,0.1-0.2c0-0.1,0.1-0.1,0.1-0.2h0c2.4-0.2,4-0.5,4.8-0.6
					c0.1,0,0.1,0,0.2,0c0,0,0,0,0,0c0,0,0,0.1,0,0.1c0,0,0,0,0,0c0,0,0,0,0,0c0,0,0,0,0,0.1c0,0,0,0.1,0,0.1
					C55.5,39.7,55.5,39.7,55.5,39.8z"/>
				<path d="M55.6,40.7L55.6,40.7c0,0.2,0,0.4,0,0.5c0,0.3,0,0.6-0.1,0.9c0,0,0,0,0,0v0c0,0.1,0,0.3-0.1,0.4c0,0.3-0.1,0.5-0.2,0.8
					l0,0c0,0.1,0,0.1-0.1,0.2c0,0.2-0.1,0.3-0.2,0.5c0,0,0,0,0,0c-0.2,0.3-0.5,0.5-0.8,0.7c-0.1,0.1-0.3,0.1-0.5,0.2
					c-0.2,0.1-0.5,0.2-0.8,0.2l0,0c0,0-0.1,0-0.1,0c0,0,0,0,0,0c-0.4,0.1-0.8,0.1-1.2,0.1c-0.5-0.5-0.8-0.9-1.1-1.2
					c2.4-0.4,3.9-0.9,4.7-1.6l0.1-0.1l0-0.1C55.1,42.3,55.3,41.6,55.6,40.7C55.6,40.6,55.6,40.7,55.6,40.7z"/>
				<path d="M72.9,46.7c-0.8-0.9-1.6-1.6-2.5-2.2c-1-0.6-2-1.1-3.1-1.5c-1.1-0.4-2.3-0.6-3.4-0.8c-0.7-0.1-1.4-0.1-2.1-0.1
					c-0.4,0.4-0.7,0.7-1.1,1c-0.3,0.2-0.5,0.4-0.8,0.5c-0.3,0.2-0.5,0.3-0.8,0.4c-0.5,0.3-1,0.5-1.5,0.7c-0.5,0.2-1,0.3-1.5,0.4
					c-1,0.2-2,0.2-2.9,0.1c-0.1,0-0.2-0.1-0.4-0.1c0.4-0.1,0.6-0.1,0.9-0.2l0,0c0.3-0.1,0.5-0.2,0.7-0.3c0,0,0.1,0,0.1-0.1l0,0
					c0.1-0.1,0.2-0.2,0.3-0.2l0,0c0.3-0.3,0.5-0.6,0.7-0.9c0.1-0.3,0.1-0.5,0.2-0.8c0,0,0-0.1,0-0.1c0,0,0-0.1,0-0.1
					c0-0.1,0-0.2,0-0.3c0-0.2,0.1-0.3,0.1-0.5c0-0.2,0-0.3,0-0.5c0,0,0-0.1,0-0.1c0-0.1,0-0.3,0-0.4c0-0.3,0-0.5,0-0.8
					c0.1,0,0.2,0,0.2,0c0.1,0,0.2,0,0.2,0c0.1,0,0.1,0,0.2,0c0.8,0.1,1.6,0.3,2.4,0.5c0.1,0,0.2,0,0.3,0.1l0.1,0
					c0.5,0.1,0.9,0.3,1.4,0.5c0.1,0,0.2,0.1,0.3,0.1c0.1,0.1,0.2,0.1,0.3,0.2c0.1,0.1,0.3,0.1,0.4,0.2c0.1,0.1,0.2,0.1,0.3,0.2l0,0
					c0,0,0,0,0,0c0,0,0,0,0,0c0,0,0.1,0,0.2,0c0.6,0,1.2,0.1,1.8,0.1c1.2,0.2,2.4,0.5,3.4,0.9c1.1,0.4,2.1,0.9,3,1.6
					C71.4,45,72.2,45.8,72.9,46.7z"/>
				<path d="M61.8,34c-0.1-0.3-0.2-0.5-0.3-0.8c0.1,0,0.2,0,0.2,0c0.1,0,0.1,0,0.2,0l0.1,0c0.8-0.1,1.7-0.2,2.5-0.1l0,0
					c0.1,0,0.2,0,0.3,0c0.5,0,1,0.1,1.5,0.1c0.1,0,0.3,0,0.4,0.1l0,0c0.1,0,0.2,0,0.2,0c0.2,0,0.4,0.1,0.6,0.1c0.1,0,0.1,0,0.2,0.1
					l0,0c0,0,0.1,0,0.1,0c0,0,0.1,0,0.1,0c0.6-0.1,1.2-0.2,1.8-0.3c1.2-0.1,2.4-0.1,3.5,0.1c1.2,0.2,2.3,0.5,3.3,0.9
					c1,0.4,2,1,2.9,1.7c-0.9-0.6-1.9-1.2-3-1.6c-1.1-0.4-2.2-0.6-3.3-0.7c-1.1-0.1-2.3-0.1-3.5,0c-0.7,0.1-1.3,0.2-2,0.4
					c-0.3,0.4-0.5,0.8-0.8,1.2c-0.4,0.5-0.8,0.9-1.2,1.3c-0.2,0.2-0.4,0.3-0.5,0.5c-0.1,0-0.2-0.1-0.3-0.1c-0.3-0.1-0.6-0.2-0.9-0.3
					c-0.5-0.1-1-0.2-1.5-0.3c-0.1,0-0.3,0-0.4,0c0-0.1,0-0.2,0-0.3c0,0,0-0.1,0-0.1c0,0,0,0,0,0c0-0.1,0-0.2,0-0.3
					c0-0.2-0.1-0.4-0.1-0.6c0-0.1,0-0.2-0.1-0.3c0-0.1-0.1-0.3-0.1-0.4C61.9,34.2,61.9,34.1,61.8,34z"/>
				<path d="M76.9,41c-0.9-0.7-1.8-1.4-2.8-1.9c-1-0.5-2.1-0.8-3.2-1.1c-1.1-0.2-2.3-0.3-3.5-0.3c-0.7,0-1.4,0.1-2,0.2
					c-0.3,0.4-0.6,0.8-1,1.1c-0.4,0.4-0.9,0.8-1.3,1.2c-0.4,0.3-0.9,0.6-1.3,0.8c-0.1-0.1-0.2-0.1-0.3-0.2c-0.2-0.1-0.4-0.2-0.7-0.3
					c-0.5-0.2-0.9-0.4-1.4-0.5c0,0,0,0,0,0c0-0.2,0-0.3,0.1-0.5c0,0,0,0,0,0c0-0.1,0-0.3,0-0.4c0,0,0-0.1,0-0.1c0-0.1,0-0.2,0-0.2
					c0,0,0-0.1,0-0.1c0-0.5-0.1-1-0.1-1.4c0,0,0,0,0-0.1l0,0c0-0.2-0.1-0.4-0.1-0.7c0,0,0,0,0-0.1c0.1,0,0.1,0,0.2,0
					c0.1,0,0.2,0,0.2,0l0,0l0,0c0.7,0,1.5,0,2.2,0.1c0.1,0,0.3,0,0.4,0l0,0c0.1,0,0.2,0,0.3,0c0.5,0.1,1,0.2,1.5,0.3
					c0.2,0.1,0.4,0.1,0.7,0.2c0.1,0,0.2,0.1,0.3,0.1c0.1,0,0.2,0.1,0.2,0.1c0.1,0,0.2,0.1,0.3,0.1l0,0c0,0,0.1,0,0.1,0
					c0,0,0.1,0,0.1,0c0.6-0.1,1.2-0.1,1.8-0.1c1.2,0,2.4,0.2,3.5,0.4c1.1,0.3,2.2,0.7,3.2,1.2C75.2,39.5,76.1,40.2,76.9,41z"/>
				<path d="M53.9,24.7c0.1,0.1,0.2,0.1,0.3,0.2h-0.3c-0.1-0.1-0.2-0.1-0.3-0.2c-0.1-0.1-0.2-0.1-0.3-0.2c-0.4-0.3-0.9-0.6-1.3-0.8
					c-1-0.6-2-1-3.1-1.5c1,0.4,2.1,0.9,3.1,1.4c0.5,0.3,1,0.6,1.5,0.9C53.8,24.6,53.9,24.7,53.9,24.7z"/>
				<path d="M57,31.8c0-0.1,0.1-0.3,0.1-0.4c-0.1,0.3-0.1,0.7-0.2,1c0,0-0.1-0.1-0.1-0.1C56.9,32.1,56.9,32,57,31.8z"/>
				<path d="M57.3,28.3C57.3,28.3,57.2,28.2,57.3,28.3c0-0.1,0-0.1,0-0.1c0.1,0,0.1,0,0.2-0.1c0,0,0,0,0.1,0c0,0,0,0.1,0.1,0.1
					c0,0,0,0,0,0c0,0,0.1,0.1,0.1,0.2c-0.1,0.1-0.2,0.1-0.3,0.1c0,0,0,0,0,0c0,0,0,0,0,0C57.4,28.5,57.4,28.4,57.3,28.3
					C57.3,28.3,57.3,28.3,57.3,28.3L57.3,28.3L57.3,28.3z"/>
				<path d="M61.8,36.2c-0.3,0-0.5,0-0.8,0c-0.4,0-0.8,0-1.1,0c0,0,0,0,0,0h-0.2c-0.1,0-0.2,0-0.4,0c-0.1,0-0.2,0-0.3,0
					c0-0.1-0.1-0.3-0.1-0.4c-0.1-0.4-0.3-0.8-0.5-1.2c0-0.1-0.1-0.1-0.1-0.2c0,0,0-0.1-0.1-0.1c-0.2-0.3-0.4-0.6-0.6-0.9
					c-0.2-0.2-0.3-0.4-0.5-0.7c0-0.1,0-0.1,0-0.2c0-0.2,0.1-0.4,0.1-0.6l0.1-0.4c0-0.3,0.1-0.7,0.1-1v0c0.1-0.3,0.3-0.6,0.5-0.9
					c-0.1-0.2-0.2-0.4-0.3-0.6v0c0-0.1,0-0.2,0-0.3c0.1,0,0.1-0.1,0.2-0.1c0.1,0.2,0.3,0.4,0.4,0.7l0.1,0.1l0,0
					c0.1,0.1,0.2,0.2,0.3,0.3c0.1,0.1,0.2,0.2,0.3,0.3c0.1,0.1,0.2,0.2,0.2,0.2c0.1,0.1,0.1,0.1,0.2,0.2c0.4,0.4,0.7,0.8,0.9,1.2
					c0,0,0.1,0.1,0.1,0.2c0,0,0,0,0,0c0.2,0.3,0.4,0.7,0.5,1c0,0.1,0.1,0.1,0.1,0.2c0,0,0,0,0,0c0,0.1,0.1,0.2,0.1,0.3
					c0.1,0.3,0.2,0.6,0.3,0.9c0,0,0,0,0,0.1c0,0.1,0.1,0.2,0.1,0.4c0.1,0.3,0.1,0.7,0.2,1l0,0l0,0c0,0.1,0,0.2,0,0.3l0,0
					C61.8,36,61.8,36.1,61.8,36.2z"/>
			</g>
		</g>
	</g>
	<path d="M57.3,24.6c0-0.5-0.1-1.1-0.2-1.7c0-0.1,0-0.2,0-0.3v0c-0.1-1.1-0.3-2.3-0.4-3.5c0-0.1,0-0.1,0-0.2
		c-0.1-0.9-0.3-1.9-0.4-2.8c0.3,0,0.6-0.3,0.6-0.6l-0.1-0.5v0l0-0.2l-0.2-1c0-0.3-0.3-0.6-0.6-0.6c0,0,0,0,0,0
		c-0.3-1.7-0.5-2.8-0.5-2.9l0,0c-0.8-1.5-11.5-1.5-12.7-1.4c0,0,0,0,0,0h-0.2c-1.9,0-11.8,0-12.5,1.4l0,0c0,0-0.2,1.1-0.4,2.6
		c0,0.1,0,0.2,0,0.3c0,0,0,0,0,0c-0.1,0-0.1,0-0.2,0v0c-0.2,0.1-0.4,0.3-0.4,0.6l-0.4,1.6l0,0c0,0,0,0.1,0,0.1
		c0.1,0.3,0.3,0.5,0.5,0.5c-0.2,1.1-0.3,2.2-0.5,3.3c0,0.1,0,0.1,0,0.2c-0.1,1.1-0.3,2.2-0.4,3.2c0,0.1,0,0.2,0,0.2
		c-0.1,0.5-0.1,1-0.1,1.5c-0.6,0-1,0.5-1,1.1v1.9c0,0.3,0.1,0.5,0.2,0.7c0.1,0.1,0.1,0.1,0.2,0.2c0.1,0.1,0.3,0.1,0.4,0.2
		c0.1,1,0.2,2.1,0.4,3.3c0,0.2,0,0.3,0.1,0.5c0,0,0,0,0,0c0.2,1,0.3,2,0.5,2.9c0.1,0.4,0.2,0.9,0.3,1.3c-0.3,0-0.6,0.3-0.6,0.6
		l0.1,0.4v0l0.1,0.5l0.2,0.7c0,0.3,0.3,0.6,0.6,0.6c0,0,0.1,0,0.3,0.1c0.2,1,0.4,1.8,0.5,2.2c0,0.2,0.1,0.3,0.1,0.4c0,0,0,0,0,0
		l0,0.1l0,0c0.6,0.6,1.7,1,3.1,1.3c0.3,0.1,0.5,0.1,0.8,0.2c0.2,0,0.3,0.1,0.5,0.1c0,0,0,0,0,0c3.2,0.5,6.9,0.6,7.8,0.6h0.4
		c0.9,0,4.3,0,7.4-0.5c2-0.3,3.8-0.8,4.7-1.6l0,0l0-0.1c0,0,0.3-1,0.6-2.4c0,0,0,0,0,0c0,0,0-0.1,0-0.2c0.1,0,0.2,0,0.3-0.1
		c0.1,0,0.2,0,0.3-0.1c0.2-0.1,0.3-0.3,0.3-0.5l0.4-1.6l0,0c0-0.3-0.3-0.6-0.6-0.6c0.2-1.2,0.5-2.5,0.7-3.7c0-0.2,0.1-0.3,0.1-0.5v0
		c0.1-0.3,0.1-0.7,0.2-1c0,0,0,0,0,0c0.1-1,0.3-2,0.3-2.8c0,0,0,0,0,0c0.1,0,0.2-0.1,0.3-0.1c0.3-0.2,0.4-0.5,0.4-0.9v-1.9
		C58.2,25.1,57.8,24.6,57.3,24.6z M57.8,27.5c0,0.2-0.1,0.4-0.3,0.6c0,0,0,0-0.1,0c-0.1,0-0.1,0.1-0.2,0.1c0,0,0,0-0.1,0
		c0,0-0.1,0-0.1,0h0h-8.3h-6.1v-3.3H57h0.1c0,0,0,0,0,0c0.1,0,0.1,0,0.2,0c0.3,0.1,0.5,0.3,0.5,0.6V27.5z M56.2,37
		c0.1,0,0.2,0.1,0.3,0.3l-0.4,1.6l0,0c0,0.2-0.1,0.3-0.3,0.3h0l0,0c0,0,0,0-0.1,0c-0.1,0-0.1,0-0.2,0c-0.1,0-0.1,0-0.2,0
		c-0.8,0.1-2.4,0.4-4.8,0.6h0c-2,0.2-4.6,0.3-7.7,0.4v-2.2c3.9,0,6.8-0.2,8.9-0.4c1.5-0.1,2.5-0.3,3.2-0.4h0c0.1,0,0.3,0,0.4-0.1
		c0.2,0,0.4-0.1,0.5-0.1c0.1,0,0.1,0,0.2,0C56,37,56.1,37,56.2,37C56.1,37,56.2,37,56.2,37z M55.8,13.6c0.1,0,0.2,0.1,0.2,0.3
		l0.2,0.8l0,0.2l0.1,0.7c0,0.1-0.1,0.2-0.3,0.3c0,0-0.1,0-0.2,0c-0.1,0-0.1,0-0.2,0c-1.2-0.3-5-1-13-1v-2.2H43c7,0,11.3,0.8,12.5,1
		c0.1,0,0.1,0,0.2,0C55.7,13.5,55.7,13.5,55.8,13.6L55.8,13.6C55.8,13.6,55.8,13.6,55.8,13.6z M42.7,33.5L42.7,33.5
		C42.8,33.5,42.8,33.5,42.7,33.5c0.7,0.1,1.2,0.7,1.2,1.4c0,0.7-0.5,1.3-1.2,1.4V33.5z M29.8,12.8c0.2-1.3,0.4-2.3,0.4-2.4
		c0.6-1,7.7-1.3,12.2-1.2l0,2.7v0.2h-0.2c-6.6,0-10.6,0.7-12.1,1c-0.1,0-0.2,0-0.3,0C29.8,13,29.8,12.9,29.8,12.8z M28.3,22.9
		c0-0.1,0-0.1,0-0.2c0.1-1,0.3-2.1,0.4-3.2c0-0.1,0-0.1,0-0.2c0.2-1.1,0.3-2.2,0.5-3.2c1.1-0.2,6-1,12.9-1h0.2v0.1l0,9.4v0.1H28.2
		C28.2,24,28.3,23.4,28.3,22.9z M28.4,31.9L28.4,31.9c0-0.2,0-0.3-0.1-0.5c-0.1-1-0.3-2-0.3-2.9h8.6h5.7l0,4.7v0.3
		C41.6,33.6,41,34.2,41,35c0,0.7,0.6,1.4,1.3,1.5v0l0,1.3c-5.6,0-9.8-0.5-11.9-0.9c-0.4-0.1-0.7-0.1-0.9-0.2c-0.1,0-0.1,0-0.1,0
		C29,35.2,28.7,33.5,28.4,31.9z M33.3,43.2c-0.1,0-0.1,0-0.2,0c0,0,0,0-0.1,0c-1-0.2-1.8-0.6-2.3-1c0,0-0.1-0.1-0.1-0.1
		c0,0,0-0.1-0.1-0.2c-0.1-0.4-0.3-1.2-0.5-2.1c0.5,0.1,1.2,0.2,2.2,0.4c2.2,0.3,5.5,0.6,10.1,0.6l0,3.4C41.4,44,36.6,44,33.3,43.2z"
		/>
</g>
</svg>
