<?xml version="1.0" encoding="utf-8"?>
<!-- Generator: Adobe Illustrator 24.3.0, SVG Export Plug-In . SVG Version: 6.00 Build 0)  -->
<svg version="1.1" id="Layer_1" xmlns="http://www.w3.org/2000/svg" xmlns:xlink="http://www.w3.org/1999/xlink" x="0px" y="0px"
	 viewBox="0 0 50 50" style="enable-background:new 0 0 50 50;" xml:space="preserve">
<g>
	<g>
		<path d="M11.3,13.1c-1.6,0-2.9-1.3-2.9-2.9V9.3c0-1.6,1.3-2.9,2.9-2.9h27.5c1.6,0,2.9,1.3,2.9,2.9v0.9c0,1.6-1.3,2.9-2.9,2.9H11.3
			z"/>
		<path d="M38.7,6.9c1.3,0,2.4,1.1,2.4,2.4v0.9c0,1.3-1.1,2.4-2.4,2.4H11.3c-1.3,0-2.4-1.1-2.4-2.4V9.3c0-1.3,1.1-2.4,2.4-2.4H38.7
			 M38.7,5.9H11.3c-1.9,0-3.4,1.5-3.4,3.4v0.9c0,1.9,1.5,3.4,3.4,3.4h27.5c1.9,0,3.4-1.5,3.4-3.4V9.3C42.2,7.4,40.6,5.9,38.7,5.9
			L38.7,5.9z"/>
	</g>
	<g>
		<path d="M11.3,28.4c-1.6,0-2.9-1.3-2.9-2.9v-0.9c0-1.6,1.3-2.9,2.9-2.9h27.5c1.6,0,2.9,1.3,2.9,2.9v0.9c0,1.6-1.3,2.9-2.9,2.9
			H11.3z"/>
		<path d="M38.7,22.1c1.3,0,2.4,1.1,2.4,2.4v0.9c0,1.3-1.1,2.4-2.4,2.4H11.3c-1.3,0-2.4-1.1-2.4-2.4v-0.9c0-1.3,1.1-2.4,2.4-2.4
			H38.7 M38.7,21.1H11.3c-1.9,0-3.4,1.5-3.4,3.4v0.9c0,1.9,1.5,3.4,3.4,3.4h27.5c1.9,0,3.4-1.5,3.4-3.4v-0.9
			C42.2,22.7,40.6,21.1,38.7,21.1L38.7,21.1z"/>
	</g>
	<g>
		<path d="M11.3,43.6c-1.6,0-2.9-1.3-2.9-2.9v-0.9c0-1.6,1.3-2.9,2.9-2.9h27.5c1.6,0,2.9,1.3,2.9,2.9v0.9c0,1.6-1.3,2.9-2.9,2.9
			H11.3z"/>
		<path d="M38.7,37.4c1.3,0,2.4,1.1,2.4,2.4v0.9c0,1.3-1.1,2.4-2.4,2.4H11.3c-1.3,0-2.4-1.1-2.4-2.4v-0.9c0-1.3,1.1-2.4,2.4-2.4
			H38.7 M38.7,36.4H11.3c-1.9,0-3.4,1.5-3.4,3.4v0.9c0,1.9,1.5,3.4,3.4,3.4h27.5c1.9,0,3.4-1.5,3.4-3.4v-0.9
			C42.2,37.9,40.6,36.4,38.7,36.4L38.7,36.4z"/>
	</g>
</g>
</svg>
